<svg width="72" height="81" viewBox="0 0 72 81" fill="none" xmlns="http://www.w3.org/2000/svg">
<path fill-rule="evenodd" clip-rule="evenodd" d="M33.0815 1.69955L24.5592 6.61624C23.6025 7.16822 23.2743 8.3913 23.8263 9.34806L24.2361 10.0583C24.7881 11.0151 26.0111 11.3432 26.9679 10.7913L30.8794 8.5346C32.2128 7.76537 33.8789 8.72766 33.8789 10.267V14.7934C33.8789 15.8979 34.7743 16.7934 35.8789 16.7934H36.6789C37.7835 16.7934 38.6789 15.8979 38.6789 14.7934V10.263C38.6789 8.72324 40.3458 7.76101 41.6791 8.53103L45.5911 10.7903C46.5476 11.3427 47.7709 11.0151 48.3233 10.0586L48.7334 9.34849C49.2858 8.39198 48.9582 7.16876 48.0017 6.61635L39.4904 1.70098C37.5077 0.555916 35.0648 0.555368 33.0815 1.69955ZM35.882 63.9651C34.7774 63.9651 33.882 64.8605 33.882 65.9651V70.4923C33.882 72.032 32.2151 72.9942 30.8818 72.2242L26.9737 69.9672C26.0172 69.4148 24.7939 69.7424 24.2415 70.6989L23.8315 71.409C23.279 72.3655 23.6066 73.5887 24.5632 74.1411L33.0744 79.0565C35.0571 80.2016 37.5 80.2021 39.4833 79.0579L48.0056 74.1412C48.9623 73.5893 49.2905 72.3662 48.7385 71.4094L48.3287 70.6992C47.7767 69.7424 46.5537 69.4142 45.5969 69.9662L41.6815 72.2251C40.3481 72.9944 38.682 72.0321 38.682 70.4928V65.9651C38.682 64.8605 37.7866 63.9651 36.682 63.9651H35.882ZM56.5073 52.5183C55.955 53.4749 56.2828 54.6981 57.2394 55.2504L61.1613 57.5147C62.4947 58.2846 62.4946 60.2093 61.1611 60.9789L57.2501 63.2363C56.2934 63.7884 55.9655 65.0116 56.5177 65.9682L56.9276 66.6784C57.4798 67.6351 58.7029 67.963 59.6596 67.4108L68.172 62.4976C70.155 61.353 71.377 59.2376 71.3777 56.948L71.3809 47.1092C71.3812 46.0046 70.4861 45.1089 69.3815 45.1085L68.5615 45.1083C67.4569 45.1079 66.5612 46.003 66.5609 47.1076L66.5594 51.6253C66.5589 53.1646 64.8925 54.1264 63.5594 53.3567L59.6394 51.0935C58.6828 50.5412 57.4596 50.8689 56.9073 51.8255L56.5073 52.5183ZM9.00307 27.4016C7.66998 26.6319 6.00356 27.5937 6.00307 29.133L6.00162 33.6498C6.00126 34.7543 5.10555 35.6495 4.00098 35.6491L3.18098 35.6489C2.07641 35.6485 1.18127 34.7528 1.18162 33.6482L1.18477 23.8094C1.18551 21.5197 2.40745 19.4044 4.39047 18.2598L12.9029 13.3466C13.8596 12.7944 15.0827 13.1223 15.6349 14.079L16.0448 14.7891C16.597 15.7458 16.269 16.9689 15.3124 17.5211L11.4006 19.7789C10.0671 20.5486 10.067 22.4733 11.4004 23.2431L15.3231 25.5079C16.2797 26.0602 16.6075 27.2834 16.0552 28.24L15.6552 28.9328C15.1029 29.8894 13.8797 30.2171 12.9231 29.6648L9.00307 27.4016ZM56.5172 14.7879C55.9646 15.7443 56.2919 16.9676 57.2483 17.5202L61.1591 19.7798C62.4919 20.5499 62.4916 22.4739 61.1585 23.2436L57.237 25.5077C56.2804 26.0599 55.9527 27.2831 56.505 28.2397L56.905 28.9325C57.4572 29.8891 58.6804 30.2169 59.637 29.6646L63.5614 27.3988C64.8948 26.629 66.5615 27.5914 66.5614 29.1312L66.5608 33.6479C66.5606 34.7525 67.456 35.648 68.5605 35.6482L69.3805 35.6483C70.4851 35.6484 71.3806 34.7531 71.3808 33.6485L71.382 23.8199C71.3823 21.5303 70.1613 19.4144 68.1788 18.2689L59.6597 13.3468C58.7033 12.7942 57.48 13.1215 56.9274 14.0779L56.5172 14.7879ZM11.4012 57.5143C10.0681 58.2839 10.0678 60.208 11.4006 60.978L15.3134 63.2387C16.2698 63.7913 16.5971 65.0146 16.0445 65.971L15.6343 66.681C15.0817 67.6374 13.8584 67.9648 12.902 67.4122L4.38291 62.4901C2.4004 61.3446 1.1794 59.2287 1.17969 56.939L1.18092 47.1104C1.18106 46.0059 2.0766 45.1105 3.18117 45.1107L4.00117 45.1108C5.10574 45.1109 6.00106 46.0065 6.00092 47.111L6.00035 51.6255C6.00016 53.1652 7.66693 54.1277 9.00035 53.3578L12.92 51.0948C13.8766 50.5425 15.0998 50.8703 15.6521 51.8268L16.0521 52.5197C16.6043 53.4763 16.2766 54.6994 15.32 55.2517L11.4012 57.5143ZM35.4913 37.0747L26.9722 32.1525C26.0158 31.5999 24.7925 31.9273 24.2399 32.8837L23.8297 33.5937C23.2771 34.5501 23.6044 35.7734 24.5608 36.326L33.08 41.2482C33.5342 41.5106 33.8272 41.9784 33.8693 42.4958C33.8684 42.539 33.868 42.5823 33.868 42.6257L33.8692 52.4543C33.8694 53.5589 34.7649 54.4542 35.8695 54.4541L36.2812 54.454L36.693 54.4541C37.7976 54.4542 38.6931 53.5589 38.6933 52.4543L38.6945 42.6257C38.6945 42.5823 38.6941 42.539 38.6932 42.4958C38.7353 41.9784 39.0283 41.5106 39.4825 41.2482L48.0017 36.326C48.9581 35.7734 49.2854 34.5501 48.7328 33.5937L48.3226 32.8837C47.77 31.9273 46.5467 31.5999 45.5903 32.1525L37.0712 37.0747V37.0747C36.5864 37.3548 35.9761 37.3548 35.4913 37.0747V37.0747Z" fill="white"/>
<path d="M33.0815 1.69955L32.8317 1.26645L32.8317 1.26645L33.0815 1.69955ZM39.4904 1.70098L39.7405 1.268L39.7405 1.26799L39.4904 1.70098ZM33.0744 79.0565L32.8243 79.4895L32.8243 79.4895L33.0744 79.0565ZM39.4833 79.0579L39.2334 78.6248L39.2334 78.6248L39.4833 79.0579ZM68.172 62.4976L67.9221 62.0645L67.9221 62.0645L68.172 62.4976ZM71.3777 56.948L70.8777 56.9479L70.8777 56.9479L71.3777 56.948ZM1.18477 23.8094L0.684773 23.8092L0.684773 23.8092L1.18477 23.8094ZM4.39047 18.2598L4.14053 17.8268L4.14052 17.8268L4.39047 18.2598ZM71.382 23.8199L71.882 23.82L71.882 23.82L71.382 23.8199ZM68.1788 18.2689L67.9287 18.7018L67.9287 18.7018L68.1788 18.2689ZM4.38291 62.4901L4.13277 62.923L4.13277 62.923L4.38291 62.4901ZM1.17969 56.939L0.679688 56.939L0.679688 56.939L1.17969 56.939ZM33.08 41.2482L33.3301 40.8152L33.3301 40.8152L33.08 41.2482ZM33.8693 42.4958L34.3692 42.5058L34.3697 42.4805L34.3676 42.4553L33.8693 42.4958ZM33.868 42.6257L33.368 42.6257L33.368 42.6257L33.868 42.6257ZM36.2812 54.454L36.2813 53.954L36.2812 53.954L36.2812 54.454ZM38.6945 42.6257L39.1945 42.6257V42.6257H38.6945ZM38.6932 42.4958L38.1949 42.4553L38.1928 42.4805L38.1933 42.5058L38.6932 42.4958ZM39.4825 41.2482L39.7327 41.6811L39.7327 41.6811L39.4825 41.2482ZM48.3226 32.8837L48.7555 32.6336L48.3226 32.8837ZM45.5903 32.1525L45.3402 31.7196L45.5903 32.1525ZM48.0017 36.326L47.7515 35.8931L48.0017 36.326ZM48.7328 33.5937L49.1658 33.3436L48.7328 33.5937ZM36.693 54.4541L36.6931 53.9541L36.693 54.4541ZM33.8692 52.4543L33.3692 52.4544L33.8692 52.4543ZM35.8695 54.4541L35.8694 53.9541L35.8695 54.4541ZM23.8297 33.5937L23.3967 33.3436L23.8297 33.5937ZM24.5608 36.326L24.3107 36.7589L24.5608 36.326ZM26.9722 32.1525L27.2223 31.7196L26.9722 32.1525ZM24.2399 32.8837L23.807 32.6336L24.2399 32.8837ZM15.32 55.2517L15.57 55.6847L15.32 55.2517ZM4.00117 45.1108L4.00111 45.6108L4.00117 45.1108ZM71.3808 33.6485L71.8808 33.6486L71.3808 33.6485ZM66.5608 33.6479L67.0608 33.648L66.5608 33.6479ZM68.5605 35.6482L68.5605 36.1482L68.5605 35.6482ZM63.5614 27.3988L63.8114 27.8319L63.5614 27.3988ZM66.5614 29.1312L67.0614 29.1312L66.5614 29.1312ZM56.905 28.9325L57.338 28.6825L56.905 28.9325ZM59.637 29.6646L59.387 29.2316L59.637 29.6646ZM57.237 25.5077L57.487 25.9407L57.237 25.5077ZM56.505 28.2397L56.0719 28.4897L56.505 28.2397ZM57.2483 17.5202L56.9982 17.9532L57.2483 17.5202ZM56.5172 14.7879L56.0842 14.5378L56.5172 14.7879ZM61.1591 19.7798L60.909 20.2127L61.1591 19.7798ZM15.6552 28.9328L16.0882 29.1828L15.6552 28.9328ZM12.9231 29.6648L13.1731 29.2318L12.9231 29.6648ZM15.3231 25.5079L15.5731 25.0749L15.3231 25.5079ZM16.0552 28.24L15.6222 27.99L16.0552 28.24ZM11.4004 23.2431L11.1504 23.6761L11.4004 23.2431ZM16.0448 14.7891L15.6117 15.0391L16.0448 14.7891ZM15.3124 17.5211L15.0624 17.0881L15.3124 17.5211ZM15.6349 14.079L15.2018 14.3289L15.6349 14.079ZM3.18098 35.6489L3.18114 35.1489L3.18098 35.6489ZM9.00307 27.4016L8.75307 27.8346L9.00307 27.4016ZM4.00098 35.6491L4.00082 36.1491L4.00098 35.6491ZM59.6394 51.0935L59.3894 51.5265L59.6394 51.0935ZM57.2501 63.2363L57.0002 62.8032L57.2501 63.2363ZM56.5177 65.9682L56.9508 65.7183L56.5177 65.9682ZM56.5073 52.5183L56.0743 52.2683L56.5073 52.5183ZM61.1613 57.5147L61.4113 57.0817L61.1613 57.5147ZM41.6815 72.2251L41.4316 71.792L41.6815 72.2251ZM48.3287 70.6992L47.8956 70.949L48.3287 70.6992ZM45.5969 69.9662L45.347 69.5331L45.5969 69.9662ZM48.0056 74.1412L48.2554 74.5743L48.0056 74.1412ZM48.7385 71.4094L49.1716 71.1596L48.7385 71.4094ZM23.8315 71.409L23.3985 71.1589L23.8315 71.409ZM24.5632 74.1411L24.8132 73.7082L24.5632 74.1411ZM26.9737 69.9672L26.7236 70.4002L26.9737 69.9672ZM24.2415 70.6989L23.8086 70.4488L24.2415 70.6989ZM9.00035 53.3578L8.75036 52.9248L9.00035 53.3578ZM30.8818 72.2242L31.1319 71.7912L30.8818 72.2242ZM48.7334 9.34849L49.1663 9.59855L48.7334 9.34849ZM45.5911 10.7903L45.3411 11.2233L45.5911 10.7903ZM48.3233 10.0586L47.8903 9.80853L48.3233 10.0586ZM41.6791 8.53103L41.9292 8.09805L41.6791 8.53103ZM68.5615 45.1083L68.5617 44.6083L68.5615 45.1083ZM66.5609 47.1076L67.0609 47.1078L66.5609 47.1076ZM15.3134 63.2387L15.0632 63.6717L15.3134 63.2387ZM16.0445 65.971L16.4775 66.2212L16.0445 65.971ZM71.3809 47.1092L70.8809 47.109L71.3809 47.1092ZM69.3815 45.1085L69.3817 44.6085L69.3815 45.1085ZM11.4006 60.978L11.6508 60.5451L11.4006 60.978ZM11.4012 57.5143L11.1512 57.0812L11.4012 57.5143ZM30.8794 8.5346L30.6296 8.10151L30.8794 8.5346ZM59.6597 13.3468L59.4095 13.7797L59.6597 13.3468ZM24.2361 10.0583L23.803 10.3082L24.2361 10.0583ZM26.9679 10.7913L26.718 10.3582L26.9679 10.7913ZM66.5594 51.6253L66.0594 51.6252L66.5594 51.6253ZM63.5594 53.3567L63.3094 53.7897L63.5594 53.3567ZM15.6343 66.681L16.0672 66.9312L15.6343 66.681ZM12.902 67.4122L13.1522 66.9793L12.902 67.4122ZM12.92 51.0948L12.67 50.6618L12.92 51.0948ZM15.6521 51.8268L15.219 52.0768L15.6521 51.8268ZM56.9276 66.6784L57.3607 66.4285L56.9276 66.6784ZM59.6596 67.4108L59.9095 67.8439L59.6596 67.4108ZM24.8091 7.04934L33.3314 2.13264L32.8317 1.26645L24.3094 6.18315L24.8091 7.04934ZM24.6692 9.80847L24.2594 9.0982L23.3932 9.59792L23.803 10.3082L24.6692 9.80847ZM30.6296 8.10151L26.718 10.3582L27.2178 11.2244L31.1293 8.96769L30.6296 8.10151ZM34.3789 14.7934V10.267H33.3789V14.7934H34.3789ZM36.6789 16.2934H35.8789V17.2934H36.6789V16.2934ZM38.1789 10.263V14.7934H39.1789V10.263H38.1789ZM45.8412 10.3573L41.9292 8.09805L41.4291 8.96401L45.3411 11.2233L45.8412 10.3573ZM48.3004 9.09844L47.8903 9.80853L48.7563 10.3086L49.1663 9.59855L48.3004 9.09844ZM39.2404 2.13396L47.7516 7.04933L48.2517 6.18337L39.7405 1.268L39.2404 2.13396ZM33.3314 2.13264C35.1599 1.07771 37.4123 1.07822 39.2404 2.13396L39.7405 1.26799C37.6031 0.0336163 34.9696 0.0330261 32.8317 1.26645L33.3314 2.13264ZM34.382 70.4923V65.9651H33.382V70.4923H34.382ZM26.7236 70.4002L30.6317 72.6572L31.1319 71.7912L27.2237 69.5342L26.7236 70.4002ZM24.2644 71.659L24.6745 70.949L23.8086 70.4488L23.3985 71.1589L24.2644 71.659ZM33.3244 78.6235L24.8132 73.7082L24.3131 74.5741L32.8243 79.4895L33.3244 78.6235ZM39.2334 78.6248C37.4049 79.6798 35.1525 79.6793 33.3244 78.6235L32.8243 79.4895C34.9617 80.7239 37.5952 80.7245 39.7332 79.491L39.2334 78.6248ZM47.7557 73.7082L39.2334 78.6248L39.7332 79.491L48.2554 74.5743L47.7557 73.7082ZM47.8956 70.949L48.3054 71.6593L49.1716 71.1596L48.7618 70.4493L47.8956 70.949ZM41.9313 72.6582L45.8468 70.3993L45.347 69.5331L41.4316 71.792L41.9313 72.6582ZM38.182 65.9651V70.4928H39.182V65.9651H38.182ZM35.882 64.4651H36.682V63.4651H35.882V64.4651ZM61.4113 57.0817L57.4894 54.8174L56.9894 55.6834L60.9113 57.9477L61.4113 57.0817ZM57.5 63.6693L61.411 61.412L60.9111 60.5459L57.0002 62.8032L57.5 63.6693ZM57.3607 66.4285L56.9508 65.7183L56.0847 66.2182L56.4946 66.9284L57.3607 66.4285ZM67.9221 62.0645L59.4096 66.9778L59.9095 67.8439L68.422 62.9306L67.9221 62.0645ZM70.8777 56.9479C70.877 59.0589 69.7504 61.0093 67.9221 62.0645L68.422 62.9306C70.5597 61.6968 71.8769 59.4164 71.8777 56.9482L70.8777 56.9479ZM70.8809 47.109L70.8777 56.9479L71.8777 56.9482L71.8809 47.1093L70.8809 47.109ZM68.5614 45.6083L69.3814 45.6085L69.3817 44.6085L68.5617 44.6083L68.5614 45.6083ZM67.0594 51.6255L67.0609 47.1078L66.0609 47.1075L66.0594 51.6252L67.0594 51.6255ZM59.3894 51.5265L63.3094 53.7897L63.8094 52.9237L59.8894 50.6605L59.3894 51.5265ZM56.9403 52.7683L57.3403 52.0755L56.4743 51.5755L56.0743 52.2683L56.9403 52.7683ZM6.50162 33.6499L6.50307 29.1331L5.50307 29.1328L5.50162 33.6496L6.50162 33.6499ZM3.18082 36.1489L4.00082 36.1491L4.00114 35.1491L3.18114 35.1489L3.18082 36.1489ZM0.684773 23.8092L0.681619 33.6481L1.68162 33.6484L1.68477 23.8095L0.684773 23.8092ZM4.14052 17.8268C2.00283 19.0606 0.685565 21.341 0.684773 23.8092L1.68477 23.8095C1.68545 21.6985 2.81208 19.7481 4.64042 18.6928L4.14052 17.8268ZM12.653 12.9135L4.14053 17.8268L4.64042 18.6928L13.1529 13.7796L12.653 12.9135ZM16.4778 14.5392L16.0679 13.829L15.2018 14.3289L15.6117 15.0391L16.4778 14.5392ZM11.6506 20.2119L15.5623 17.9541L15.0624 17.0881L11.1507 19.3459L11.6506 20.2119ZM15.5731 25.0749L11.6504 22.8101L11.1504 23.6761L15.0731 25.9409L15.5731 25.0749ZM16.0882 29.1828L16.4882 28.49L15.6222 27.99L15.2222 28.6828L16.0882 29.1828ZM8.75307 27.8346L12.6731 30.0978L13.1731 29.2318L9.25307 26.9686L8.75307 27.8346ZM61.4092 19.3468L57.4985 17.0873L56.9982 17.9532L60.909 20.2127L61.4092 19.3468ZM57.487 25.9407L61.4085 23.6766L60.9085 22.8105L56.987 25.0746L57.487 25.9407ZM57.338 28.6825L56.938 27.9897L56.0719 28.4897L56.4719 29.1825L57.338 28.6825ZM63.3114 26.9658L59.387 29.2316L59.887 30.0976L63.8114 27.8319L63.3114 26.9658ZM67.0608 33.648L67.0614 29.1312L66.0614 29.1311L66.0608 33.6479L67.0608 33.648ZM69.3806 35.1483L68.5606 35.1482L68.5605 36.1482L69.3805 36.1483L69.3806 35.1483ZM70.882 23.8199L70.8808 33.6485L71.8808 33.6486L71.882 23.82L70.882 23.8199ZM67.9287 18.7018C69.7565 19.7579 70.8823 21.7088 70.882 23.8199L71.882 23.82C71.8823 21.3518 70.5661 19.0708 68.4289 17.836L67.9287 18.7018ZM59.4095 13.7797L67.9287 18.7018L68.4289 17.836L59.9098 12.9138L59.4095 13.7797ZM56.9501 15.0381L57.3603 14.3281L56.4945 13.8278L56.0842 14.5378L56.9501 15.0381ZM11.1505 61.411L15.0632 63.6717L15.5635 62.8058L11.6508 60.5451L11.1505 61.411ZM15.6116 65.7209L15.2014 66.4309L16.0672 66.9312L16.4775 66.2212L15.6116 65.7209ZM13.1522 66.9793L4.63305 62.0571L4.13277 62.923L12.6519 67.8451L13.1522 66.9793ZM4.63305 62.0571C2.80518 61.001 1.67942 59.0501 1.67969 56.9391L0.679688 56.939C0.679378 59.4072 1.99562 61.6882 4.13277 62.923L4.63305 62.0571ZM1.67969 56.9391L1.68092 47.1105L0.680921 47.1104L0.679688 56.939L1.67969 56.9391ZM3.18111 45.6107L4.00111 45.6108L4.00123 44.6108L3.18124 44.6107L3.18111 45.6107ZM5.50092 47.111L5.50035 51.6254L6.50035 51.6256L6.50092 47.1111L5.50092 47.111ZM9.25035 53.7908L13.17 51.5278L12.67 50.6618L8.75036 52.9248L9.25035 53.7908ZM15.219 52.0768L15.619 52.7697L16.4851 52.2697L16.0851 51.5768L15.219 52.0768ZM15.07 54.8187L11.1512 57.0812L11.6512 57.9473L15.57 55.6847L15.07 54.8187ZM26.722 32.5855L35.2412 37.5076L35.7414 36.6418L27.2223 31.7196L26.722 32.5855ZM24.2626 33.8438L24.6728 33.1338L23.807 32.6336L23.3967 33.3436L24.2626 33.8438ZM33.3301 40.8152L24.811 35.8931L24.3107 36.7589L32.8298 41.6811L33.3301 40.8152ZM34.3676 42.4553C34.3123 41.7751 33.9272 41.1602 33.3301 40.8152L32.8298 41.6811C33.1412 41.861 33.3421 42.1817 33.3709 42.5363L34.3676 42.4553ZM34.368 42.6257C34.368 42.5856 34.3684 42.5457 34.3692 42.5058L33.3694 42.4858C33.3684 42.5324 33.368 42.579 33.368 42.6257H34.368ZM34.3692 52.4542L34.368 42.6256L33.368 42.6257L33.3692 52.4544L34.3692 52.4542ZM36.2812 53.954L35.8694 53.9541L35.8695 54.9541L36.2813 54.954L36.2812 53.954ZM36.6931 53.9541L36.2813 53.954L36.2812 54.954L36.693 54.9541L36.6931 53.9541ZM38.1945 42.6256L38.1933 52.4542L39.1933 52.4544L39.1945 42.6257L38.1945 42.6256ZM38.1933 42.5058C38.1941 42.5457 38.1945 42.5856 38.1945 42.6257H39.1945C39.1945 42.579 39.1941 42.5324 39.1931 42.4858L38.1933 42.5058ZM39.2324 40.8152C38.6353 41.1602 38.2502 41.7751 38.1949 42.4553L39.1916 42.5363C39.2204 42.1817 39.4214 41.861 39.7327 41.6811L39.2324 40.8152ZM47.7515 35.8931L39.2324 40.8152L39.7327 41.6811L48.2518 36.7589L47.7515 35.8931ZM47.8897 33.1338L48.2999 33.8438L49.1658 33.3436L48.7555 32.6336L47.8897 33.1338ZM37.3213 37.5076L45.8405 32.5855L45.3402 31.7196L36.8211 36.6418L37.3213 37.5076ZM36.8211 36.6418C36.491 36.8324 36.0715 36.8324 35.7414 36.6418L35.2412 37.5076C35.8807 37.8772 36.6818 37.8772 37.3213 37.5076L36.8211 36.6418ZM48.7555 32.6336C48.0648 31.4381 46.5357 31.0289 45.3402 31.7196L45.8405 32.5855C46.5578 32.171 47.4752 32.4165 47.8897 33.1338L48.7555 32.6336ZM48.2518 36.7589C49.4473 36.0682 49.8565 34.5391 49.1658 33.3436L48.2999 33.8438C48.7144 34.5612 48.4688 35.4786 47.7515 35.8931L48.2518 36.7589ZM36.693 54.9541C38.0737 54.9542 39.1931 53.8351 39.1933 52.4544L38.1933 52.4542C38.1932 53.2827 37.5215 53.9542 36.6931 53.9541L36.693 54.9541ZM33.3692 52.4544C33.3694 53.8351 34.4888 54.9542 35.8695 54.9541L35.8694 53.9541C35.041 53.9542 34.3693 53.2827 34.3692 52.4542L33.3692 52.4544ZM23.3967 33.3436C22.706 34.5391 23.1152 36.0682 24.3107 36.7589L24.811 35.8931C24.0937 35.4786 23.8481 34.5612 24.2626 33.8438L23.3967 33.3436ZM27.2223 31.7196C26.0268 31.0289 24.4977 31.4381 23.807 32.6336L24.6728 33.1338C25.0873 32.4165 26.0047 32.171 26.722 32.5855L27.2223 31.7196ZM15.619 52.7697C16.0333 53.4871 15.7874 54.4045 15.07 54.8187L15.57 55.6847C16.7657 54.9944 17.1754 53.4654 16.4851 52.2697L15.619 52.7697ZM4.00111 45.6108C4.82954 45.6109 5.50103 46.2826 5.50092 47.111L6.50092 47.1111C6.50109 45.7304 5.38195 44.611 4.00123 44.6108L4.00111 45.6108ZM69.3805 36.1483C70.7612 36.1485 71.8806 35.0293 71.8808 33.6486L70.8808 33.6485C70.8807 34.4769 70.209 35.1484 69.3806 35.1483L69.3805 36.1483ZM66.0608 33.6479C66.0606 35.0286 67.1798 36.148 68.5605 36.1482L68.5606 35.1482C67.7322 35.1481 67.0607 34.4764 67.0608 33.648L66.0608 33.6479ZM63.8114 27.8319C64.8114 27.2545 66.0615 27.9763 66.0614 29.1311L67.0614 29.1312C67.0616 27.2066 64.9781 26.0035 63.3114 26.9658L63.8114 27.8319ZM56.4719 29.1825C57.1623 30.3783 58.6913 30.7879 59.887 30.0976L59.387 29.2316C58.6696 29.6458 57.7522 29.4 57.338 28.6825L56.4719 29.1825ZM56.987 25.0746C55.7913 25.765 55.3816 27.294 56.0719 28.4897L56.938 27.9897C56.5238 27.2723 56.7696 26.3549 57.487 25.9407L56.987 25.0746ZM57.4985 17.0873C56.7812 16.6728 56.5356 15.7554 56.9501 15.0381L56.0842 14.5378C55.3935 15.7333 55.8027 17.2624 56.9982 17.9532L57.4985 17.0873ZM60.909 20.2127C61.9086 20.7903 61.9084 22.2333 60.9085 22.8105L61.4085 23.6766C63.0749 22.7145 63.0753 20.3094 61.4092 19.3468L60.909 20.2127ZM15.2222 28.6828C14.808 29.4002 13.8906 29.646 13.1731 29.2318L12.6731 30.0978C13.8689 30.7882 15.3978 30.3785 16.0882 29.1828L15.2222 28.6828ZM15.0731 25.9409C15.7906 26.3551 16.0364 27.2725 15.6222 27.99L16.4882 28.49C17.1786 27.2942 16.7689 25.7653 15.5731 25.0749L15.0731 25.9409ZM11.1507 19.3459C9.48378 20.308 9.48363 22.7138 11.1504 23.6761L11.6504 22.8101C10.6503 22.2327 10.6504 20.7892 11.6506 20.2119L11.1507 19.3459ZM15.6117 15.0391C16.0259 15.7566 15.7799 16.6739 15.0624 17.0881L15.5623 17.9541C16.7582 17.2639 17.168 15.735 16.4778 14.5392L15.6117 15.0391ZM13.1529 13.7796C13.8704 13.3655 14.7877 13.6114 15.2018 14.3289L16.0679 13.829C15.3777 12.6332 13.8488 12.2233 12.653 12.9135L13.1529 13.7796ZM3.18114 35.1489C2.35271 35.1486 1.68135 34.4768 1.68162 33.6484L0.681619 33.6481C0.681177 35.0288 1.80011 36.1484 3.18082 36.1489L3.18114 35.1489ZM6.50307 29.1331C6.50344 27.9787 7.75325 27.2573 8.75307 27.8346L9.25307 26.9686C7.58671 26.0065 5.50368 27.2087 5.50307 29.1328L6.50307 29.1331ZM5.50162 33.6496C5.50135 34.478 4.82956 35.1494 4.00114 35.1491L4.00082 36.1491C5.38153 36.1496 6.50118 35.0306 6.50162 33.6499L5.50162 33.6496ZM59.8894 50.6605C58.6936 49.9701 57.1647 50.3798 56.4743 51.5755L57.3403 52.0755C57.7545 51.3581 58.6719 51.1123 59.3894 51.5265L59.8894 50.6605ZM57.0002 62.8032C55.8043 63.4934 55.3945 65.0224 56.0847 66.2182L56.9508 65.7183C56.5366 65.0008 56.7826 64.0834 57.5 63.6693L57.0002 62.8032ZM57.4894 54.8174C56.7719 54.4032 56.5261 53.4858 56.9403 52.7683L56.0743 52.2683C55.3839 53.4641 55.7936 54.9931 56.9894 55.6834L57.4894 54.8174ZM60.9113 57.9477C61.9113 58.5251 61.9113 59.9686 60.9111 60.5459L61.411 61.412C63.0779 60.4499 63.0781 58.044 61.4113 57.0817L60.9113 57.9477ZM39.182 65.9651C39.182 64.5844 38.0627 63.4651 36.682 63.4651V64.4651C37.5104 64.4651 38.182 65.1367 38.182 65.9651H39.182ZM41.4316 71.792C40.4316 72.369 39.182 71.6473 39.182 70.4928H38.182C38.182 72.4169 40.2647 73.6198 41.9313 72.6582L41.4316 71.792ZM48.7618 70.4493C48.0718 69.2533 46.543 68.8432 45.347 69.5331L45.8468 70.3993C46.5643 69.9853 47.4816 70.2314 47.8956 70.949L48.7618 70.4493ZM48.2554 74.5743C49.4514 73.8844 49.8616 72.3555 49.1716 71.1596L48.3054 71.6593C48.7194 72.3769 48.4733 73.2942 47.7557 73.7082L48.2554 74.5743ZM23.3985 71.1589C22.708 72.3546 23.1175 73.8836 24.3131 74.5741L24.8132 73.7082C24.0958 73.2938 23.8501 72.3764 24.2644 71.659L23.3985 71.1589ZM27.2237 69.5342C26.0281 68.8437 24.4991 69.2532 23.8086 70.4488L24.6745 70.949C25.0888 70.2316 26.0062 69.9859 26.7236 70.4002L27.2237 69.5342ZM5.50035 51.6254C5.50011 53.5501 7.58357 54.7531 9.25035 53.7908L8.75036 52.9248C7.75028 53.5022 6.50021 52.7804 6.50035 51.6256L5.50035 51.6254ZM33.382 70.4923C33.382 71.6471 32.1319 72.3687 31.1319 71.7912L30.6317 72.6572C32.2984 73.6197 34.382 72.4169 34.382 70.4923H33.382ZM1.68092 47.1105C1.68103 46.2821 2.35268 45.6106 3.18111 45.6107L3.18124 44.6107C1.80052 44.6105 0.681095 45.7297 0.680921 47.1104L1.68092 47.1105ZM49.1663 9.59855C49.8568 8.4029 49.4474 6.87388 48.2517 6.18337L47.7516 7.04933C48.469 7.46364 48.7147 8.38105 48.3004 9.09844L49.1663 9.59855ZM45.3411 11.2233C46.5367 11.9138 48.0657 11.5043 48.7563 10.3086L47.8903 9.80853C47.476 10.5259 46.5586 10.7716 45.8412 10.3573L45.3411 11.2233ZM39.1789 10.263C39.1789 9.10817 40.4291 8.38649 41.4291 8.96401L41.9292 8.09805C40.2625 7.13552 38.1789 8.33832 38.1789 10.263H39.1789ZM68.5617 44.6083C67.181 44.6078 66.0613 45.7267 66.0609 47.1075L67.0609 47.1078C67.0611 46.2793 67.7329 45.608 68.5614 45.6083L68.5617 44.6083ZM15.0632 63.6717C15.7805 64.0861 16.0261 65.0036 15.6116 65.7209L16.4775 66.2212C17.1682 65.0257 16.759 63.4965 15.5635 62.8058L15.0632 63.6717ZM33.3789 14.7934C33.3789 16.1741 34.4982 17.2934 35.8789 17.2934V16.2934C35.0505 16.2934 34.3789 15.6218 34.3789 14.7934H33.3789ZM71.8809 47.1093C71.8813 45.7286 70.7624 44.609 69.3817 44.6085L69.3814 45.6085C70.2098 45.6088 70.8811 46.2806 70.8809 47.109L71.8809 47.1093ZM11.6508 60.5451C10.6511 59.9675 10.6514 58.5245 11.6512 57.9473L11.1512 57.0812C9.48481 58.0433 9.48443 60.4484 11.1505 61.411L11.6508 60.5451ZM31.1293 8.96769C32.1293 8.39077 33.3789 9.11249 33.3789 10.267H34.3789C34.3789 8.34283 32.2963 7.13997 30.6296 8.10151L31.1293 8.96769ZM59.9098 12.9138C58.7143 12.2231 57.1852 12.6323 56.4945 13.8278L57.3603 14.3281C57.7748 13.6108 58.6922 13.3652 59.4095 13.7797L59.9098 12.9138ZM23.803 10.3082C24.493 11.5041 26.0218 11.9143 27.2178 11.2244L26.718 10.3582C26.0005 10.7721 25.0832 10.526 24.6692 9.80847L23.803 10.3082ZM66.0594 51.6252C66.0591 52.7796 64.8092 53.501 63.8094 52.9237L63.3094 53.7897C64.9758 54.7518 67.0588 53.5496 67.0594 51.6255L66.0594 51.6252ZM15.2014 66.4309C14.7869 67.1482 13.8695 67.3937 13.1522 66.9793L12.6519 67.8451C13.8474 68.5359 15.3765 68.1267 16.0672 66.9312L15.2014 66.4309ZM36.6789 17.2934C38.0596 17.2934 39.1789 16.1741 39.1789 14.7934H38.1789C38.1789 15.6218 37.5073 16.2934 36.6789 16.2934V17.2934ZM13.17 51.5278C13.8874 51.1136 14.8048 51.3594 15.219 52.0768L16.0851 51.5768C15.3947 50.3811 13.8657 49.9714 12.67 50.6618L13.17 51.5278ZM34.382 65.9651C34.382 65.1367 35.0536 64.4651 35.882 64.4651V63.4651C34.5013 63.4651 33.382 64.5844 33.382 65.9651H34.382ZM56.4946 66.9284C57.1848 68.1242 58.7137 68.5341 59.9095 67.8439L59.4096 66.9778C58.6921 67.3919 57.7748 67.146 57.3607 66.4285L56.4946 66.9284ZM24.3094 6.18315C23.1134 6.87312 22.7032 8.40197 23.3932 9.59792L24.2594 9.0982C23.8454 8.38063 24.0915 7.46332 24.8091 7.04934L24.3094 6.18315Z" fill="white"/>
</svg>
