<svg width="356" height="66" viewBox="0 0 356 66" fill="none" xmlns="http://www.w3.org/2000/svg">
<path fill-rule="evenodd" clip-rule="evenodd" d="M37.139 2.65134C32.7797 0.134448 27.4087 0.134448 23.0493 2.65134L7.22067 11.79C2.86128 14.3069 0.175781 18.9583 0.175781 23.9921V42.2694C0.175781 47.3032 2.86128 51.9546 7.22066 54.4715L23.0493 63.6101C27.4087 66.127 32.7797 66.127 37.139 63.6101L52.9676 54.4715C57.327 51.9546 60.0125 47.3032 60.0125 42.2694V23.9921C60.0125 18.9583 57.327 14.3069 52.9676 11.79L37.139 2.65134ZM40.7437 12.2489C38.0304 9.6287 34.1253 8.65505 30.4994 9.69475L17.3342 13.4698C13.7084 14.5095 10.9126 17.4046 10.0001 21.0645L6.6868 34.3534C5.77428 38.0134 6.88362 41.8821 9.59695 44.5023L19.4488 54.0162C22.1622 56.6364 26.0673 57.6101 29.6931 56.5704L42.8583 52.7953C46.4842 51.7556 49.2799 48.8605 50.1924 45.2006L53.5057 31.9117C54.4183 28.2518 53.3089 24.383 50.5956 21.7628L40.7437 12.2489Z" fill="white"/>
<path d="M348.301 6.0957H355.597V13.0077H348.301V6.0957ZM348.301 18.7037H355.597V51.7917H348.301V18.7037Z" fill="white"/>
<path d="M340.258 44.4326C340.258 45.3286 340.365 45.9686 340.578 46.3526C340.834 46.7366 341.303 46.9286 341.986 46.9286C342.199 46.9286 342.455 46.9286 342.754 46.9286C343.053 46.9286 343.394 46.8859 343.778 46.8006V51.8566C343.522 51.9419 343.181 52.0273 342.754 52.1126C342.37 52.2406 341.965 52.3473 341.538 52.4326C341.111 52.5179 340.685 52.5819 340.258 52.6246C339.831 52.6673 339.469 52.6886 339.17 52.6886C337.677 52.6886 336.439 52.3899 335.458 51.7926C334.477 51.1953 333.837 50.1499 333.538 48.6566C332.087 50.0646 330.295 51.0886 328.162 51.7286C326.071 52.3686 324.045 52.6886 322.082 52.6886C320.589 52.6886 319.159 52.4753 317.794 52.0486C316.429 51.6646 315.213 51.0886 314.146 50.3206C313.122 49.5099 312.29 48.5073 311.65 47.3126C311.053 46.0753 310.754 44.6459 310.754 43.0246C310.754 40.9766 311.117 39.3126 311.842 38.0326C312.61 36.7526 313.591 35.7499 314.786 35.0246C316.023 34.2993 317.389 33.7873 318.882 33.4886C320.418 33.1473 321.954 32.8913 323.49 32.7206C324.813 32.4646 326.071 32.2939 327.266 32.2086C328.461 32.0806 329.506 31.8886 330.402 31.6326C331.341 31.3766 332.066 30.9926 332.578 30.4806C333.133 29.9259 333.41 29.1153 333.41 28.0486C333.41 27.1099 333.175 26.3419 332.706 25.7446C332.279 25.1473 331.725 24.6993 331.042 24.4006C330.402 24.0593 329.677 23.8459 328.866 23.7606C328.055 23.6326 327.287 23.5686 326.562 23.5686C324.514 23.5686 322.829 23.9953 321.506 24.8486C320.183 25.7019 319.437 27.0246 319.266 28.8166H311.97C312.098 26.6833 312.61 24.9126 313.506 23.5046C314.402 22.0966 315.533 20.9659 316.898 20.1126C318.306 19.2593 319.885 18.6619 321.634 18.3206C323.383 17.9793 325.175 17.8086 327.01 17.8086C328.631 17.8086 330.231 17.9793 331.81 18.3206C333.389 18.6619 334.797 19.2166 336.034 19.9846C337.314 20.7526 338.338 21.7553 339.106 22.9926C339.874 24.1873 340.258 25.6593 340.258 27.4086V44.4326ZM332.962 35.2166C331.853 35.9419 330.487 36.3899 328.866 36.5606C327.245 36.6886 325.623 36.9019 324.002 37.2006C323.234 37.3286 322.487 37.5206 321.762 37.7766C321.037 37.9899 320.397 38.3099 319.842 38.7366C319.287 39.1206 318.839 39.6539 318.498 40.3366C318.199 40.9766 318.05 41.7659 318.05 42.7046C318.05 43.5153 318.285 44.1979 318.754 44.7526C319.223 45.3073 319.778 45.7553 320.418 46.0966C321.101 46.3953 321.826 46.6086 322.594 46.7366C323.405 46.8646 324.13 46.9286 324.77 46.9286C325.581 46.9286 326.455 46.8219 327.394 46.6086C328.333 46.3953 329.207 46.0326 330.018 45.5206C330.871 45.0086 331.575 44.3686 332.13 43.6006C332.685 42.7899 332.962 41.8086 332.962 40.6566V35.2166Z" fill="white"/>
<path d="M295.309 43.1523H304.205V51.7923H295.309V43.1523Z" fill="white"/>
<path d="M281.89 32.3366C281.805 31.1846 281.549 30.0753 281.122 29.0086C280.738 27.9419 280.184 27.0246 279.458 26.2566C278.776 25.4459 277.922 24.8059 276.898 24.3366C275.917 23.8246 274.808 23.5686 273.57 23.5686C272.29 23.5686 271.117 23.8033 270.05 24.2726C269.026 24.6993 268.13 25.3179 267.362 26.1286C266.637 26.8966 266.04 27.8139 265.57 28.8806C265.144 29.9473 264.909 31.0993 264.866 32.3366H281.89ZM264.866 37.1366C264.866 38.4166 265.037 39.6539 265.378 40.8486C265.762 42.0433 266.317 43.0886 267.042 43.9846C267.768 44.8806 268.685 45.6059 269.794 46.1606C270.904 46.6726 272.226 46.9286 273.762 46.9286C275.896 46.9286 277.602 46.4806 278.882 45.5846C280.205 44.6459 281.186 43.2593 281.826 41.4246H288.738C288.354 43.2166 287.693 44.8166 286.754 46.2246C285.816 47.6326 284.685 48.8273 283.362 49.8086C282.04 50.7473 280.546 51.4513 278.882 51.9206C277.261 52.4326 275.554 52.6886 273.762 52.6886C271.16 52.6886 268.856 52.2619 266.85 51.4086C264.845 50.5553 263.138 49.3606 261.73 47.8246C260.365 46.2886 259.32 44.4539 258.594 42.3206C257.912 40.1873 257.57 37.8406 257.57 35.2806C257.57 32.9339 257.933 30.7153 258.658 28.6246C259.426 26.4913 260.493 24.6353 261.858 23.0566C263.266 21.4353 264.952 20.1553 266.914 19.2166C268.877 18.2779 271.096 17.8086 273.57 17.8086C276.173 17.8086 278.498 18.3633 280.546 19.4726C282.637 20.5393 284.365 21.9686 285.73 23.7606C287.096 25.5526 288.077 27.6219 288.674 29.9686C289.314 32.2726 289.485 34.6619 289.186 37.1366H264.866Z" fill="white"/>
<path d="M245.944 29.7766C245.645 27.7286 244.813 26.1926 243.448 25.1686C242.125 24.1019 240.44 23.5686 238.392 23.5686C237.453 23.5686 236.45 23.7393 235.384 24.0806C234.317 24.3793 233.336 24.9766 232.44 25.8726C231.544 26.7259 230.797 27.9419 230.2 29.5206C229.602 31.0566 229.304 33.0833 229.304 35.6006C229.304 36.9659 229.453 38.3313 229.752 39.6966C230.093 41.0619 230.605 42.2779 231.288 43.3446C232.013 44.4113 232.93 45.2859 234.04 45.9686C235.149 46.6086 236.493 46.9286 238.072 46.9286C240.205 46.9286 241.954 46.2673 243.32 44.9446C244.728 43.6219 245.602 41.7659 245.944 39.3766H253.24C252.557 43.6859 250.914 46.9926 248.312 49.2966C245.752 51.5579 242.338 52.6886 238.072 52.6886C235.469 52.6886 233.165 52.2619 231.16 51.4086C229.197 50.5126 227.533 49.3179 226.168 47.8246C224.802 46.2886 223.757 44.4753 223.032 42.3846C222.349 40.2939 222.008 38.0326 222.008 35.6006C222.008 33.1259 222.349 30.8006 223.032 28.6246C223.714 26.4486 224.738 24.5713 226.104 22.9926C227.469 21.3713 229.154 20.1126 231.16 19.2166C233.208 18.2779 235.597 17.8086 238.328 17.8086C240.248 17.8086 242.061 18.0646 243.768 18.5766C245.517 19.0459 247.053 19.7713 248.376 20.7526C249.741 21.7339 250.85 22.9713 251.704 24.4646C252.557 25.9579 253.069 27.7286 253.24 29.7766H245.944Z" fill="white"/>
<path d="M215.758 44.4326C215.758 45.3286 215.865 45.9686 216.078 46.3526C216.334 46.7366 216.803 46.9286 217.486 46.9286C217.699 46.9286 217.955 46.9286 218.254 46.9286C218.553 46.9286 218.894 46.8859 219.278 46.8006V51.8566C219.022 51.9419 218.681 52.0273 218.254 52.1126C217.87 52.2406 217.465 52.3473 217.038 52.4326C216.611 52.5179 216.185 52.5819 215.758 52.6246C215.331 52.6673 214.969 52.6886 214.67 52.6886C213.177 52.6886 211.939 52.3899 210.958 51.7926C209.977 51.1953 209.337 50.1499 209.038 48.6566C207.587 50.0646 205.795 51.0886 203.662 51.7286C201.571 52.3686 199.545 52.6886 197.582 52.6886C196.089 52.6886 194.659 52.4753 193.294 52.0486C191.929 51.6646 190.713 51.0886 189.646 50.3206C188.622 49.5099 187.79 48.5073 187.15 47.3126C186.553 46.0753 186.254 44.6459 186.254 43.0246C186.254 40.9766 186.617 39.3126 187.342 38.0326C188.11 36.7526 189.091 35.7499 190.286 35.0246C191.523 34.2993 192.889 33.7873 194.382 33.4886C195.918 33.1473 197.454 32.8913 198.99 32.7206C200.313 32.4646 201.571 32.2939 202.766 32.2086C203.961 32.0806 205.006 31.8886 205.902 31.6326C206.841 31.3766 207.566 30.9926 208.078 30.4806C208.633 29.9259 208.91 29.1153 208.91 28.0486C208.91 27.1099 208.675 26.3419 208.206 25.7446C207.779 25.1473 207.225 24.6993 206.542 24.4006C205.902 24.0593 205.177 23.8459 204.366 23.7606C203.555 23.6326 202.787 23.5686 202.062 23.5686C200.014 23.5686 198.329 23.9953 197.006 24.8486C195.683 25.7019 194.937 27.0246 194.766 28.8166H187.47C187.598 26.6833 188.11 24.9126 189.006 23.5046C189.902 22.0966 191.033 20.9659 192.398 20.1126C193.806 19.2593 195.385 18.6619 197.134 18.3206C198.883 17.9793 200.675 17.8086 202.51 17.8086C204.131 17.8086 205.731 17.9793 207.31 18.3206C208.889 18.6619 210.297 19.2166 211.534 19.9846C212.814 20.7526 213.838 21.7553 214.606 22.9926C215.374 24.1873 215.758 25.6593 215.758 27.4086V44.4326ZM208.462 35.2166C207.353 35.9419 205.987 36.3899 204.366 36.5606C202.745 36.6886 201.123 36.9019 199.502 37.2006C198.734 37.3286 197.987 37.5206 197.262 37.7766C196.537 37.9899 195.897 38.3099 195.342 38.7366C194.787 39.1206 194.339 39.6539 193.998 40.3366C193.699 40.9766 193.55 41.7659 193.55 42.7046C193.55 43.5153 193.785 44.1979 194.254 44.7526C194.723 45.3073 195.278 45.7553 195.918 46.0966C196.601 46.3953 197.326 46.6086 198.094 46.7366C198.905 46.8646 199.63 46.9286 200.27 46.9286C201.081 46.9286 201.955 46.8219 202.894 46.6086C203.833 46.3953 204.707 46.0326 205.518 45.5206C206.371 45.0086 207.075 44.3686 207.63 43.6006C208.185 42.7899 208.462 41.8086 208.462 40.6566V35.2166Z" fill="white"/>
<path d="M149.113 18.7046H156.025V23.1846H156.153C157.177 21.2646 158.607 19.8993 160.441 19.0886C162.276 18.2353 164.26 17.8086 166.393 17.8086C168.996 17.8086 171.257 18.2779 173.177 19.2166C175.14 20.1126 176.761 21.3713 178.041 22.9926C179.321 24.5713 180.281 26.4273 180.921 28.5606C181.561 30.6939 181.881 32.9766 181.881 35.4086C181.881 37.6273 181.583 39.7819 180.985 41.8726C180.431 43.9633 179.556 45.8193 178.361 47.4406C177.209 49.0193 175.737 50.2993 173.945 51.2806C172.153 52.2193 170.041 52.6886 167.609 52.6886C166.543 52.6886 165.476 52.5819 164.409 52.3686C163.343 52.1979 162.319 51.8993 161.337 51.4726C160.356 51.0459 159.439 50.5126 158.585 49.8726C157.775 49.1899 157.092 48.4006 156.537 47.5046H156.409V64.0166H149.113V18.7046ZM174.585 35.2806C174.585 33.7873 174.393 32.3366 174.009 30.9286C173.625 29.5206 173.049 28.2833 172.281 27.2166C171.513 26.1073 170.553 25.2326 169.401 24.5926C168.249 23.9099 166.927 23.5686 165.433 23.5686C162.361 23.5686 160.036 24.6353 158.457 26.7686C156.921 28.9019 156.153 31.7393 156.153 35.2806C156.153 36.9446 156.345 38.5019 156.729 39.9526C157.156 41.3606 157.775 42.5766 158.585 43.6006C159.396 44.6246 160.356 45.4353 161.465 46.0326C162.617 46.6299 163.94 46.9286 165.433 46.9286C167.097 46.9286 168.505 46.5873 169.657 45.9046C170.809 45.2219 171.748 44.3473 172.473 43.2806C173.241 42.1713 173.775 40.9339 174.073 39.5686C174.415 38.1606 174.585 36.7313 174.585 35.2806Z" fill="white"/>
<path d="M121.237 41.1686C121.451 43.3019 122.261 44.7953 123.669 45.6486C125.077 46.5019 126.763 46.9286 128.725 46.9286C129.408 46.9286 130.176 46.8859 131.029 46.8006C131.925 46.6726 132.757 46.4593 133.525 46.1606C134.293 45.8619 134.912 45.4353 135.381 44.8806C135.893 44.2833 136.128 43.5153 136.085 42.5766C136.043 41.6379 135.701 40.8699 135.061 40.2726C134.421 39.6753 133.589 39.2059 132.565 38.8646C131.584 38.4806 130.453 38.1606 129.173 37.9046C127.893 37.6486 126.592 37.3713 125.269 37.0726C123.904 36.7739 122.581 36.4113 121.301 35.9846C120.064 35.5579 118.933 34.9819 117.909 34.2566C116.928 33.5313 116.139 32.6139 115.541 31.5046C114.944 30.3526 114.645 28.9446 114.645 27.2806C114.645 25.4886 115.072 23.9953 115.925 22.8006C116.821 21.5633 117.931 20.5819 119.253 19.8566C120.619 19.0886 122.112 18.5553 123.733 18.2566C125.397 17.9579 126.976 17.8086 128.469 17.8086C130.176 17.8086 131.797 18.0006 133.333 18.3846C134.912 18.7259 136.32 19.3019 137.557 20.1126C138.837 20.9233 139.883 21.9899 140.693 23.3126C141.547 24.5926 142.08 26.1499 142.293 27.9846H134.677C134.336 26.2353 133.525 25.0619 132.245 24.4646C131.008 23.8673 129.579 23.5686 127.957 23.5686C127.445 23.5686 126.827 23.6113 126.101 23.6966C125.419 23.7819 124.757 23.9526 124.117 24.2086C123.52 24.4219 123.008 24.7633 122.581 25.2326C122.155 25.6593 121.941 26.2353 121.941 26.9606C121.941 27.8566 122.24 28.5819 122.837 29.1366C123.477 29.6913 124.288 30.1606 125.269 30.5446C126.293 30.8859 127.445 31.1846 128.725 31.4406C130.005 31.6966 131.328 31.9739 132.693 32.2726C134.016 32.5713 135.317 32.9339 136.597 33.3606C137.877 33.7873 139.008 34.3633 139.989 35.0886C141.013 35.8139 141.824 36.7313 142.421 37.8406C143.061 38.9499 143.381 40.3153 143.381 41.9366C143.381 43.8993 142.933 45.5633 142.037 46.9286C141.141 48.2939 139.968 49.4033 138.517 50.2566C137.109 51.1099 135.531 51.7286 133.781 52.1126C132.032 52.4966 130.304 52.6886 128.597 52.6886C126.507 52.6886 124.565 52.4539 122.773 51.9846C121.024 51.5153 119.488 50.8113 118.165 49.8726C116.885 48.8913 115.861 47.6966 115.093 46.2886C114.368 44.8379 113.984 43.1313 113.941 41.1686H121.237Z" fill="white"/>
<path d="M101.037 19.9837C100.312 19.9837 99.6721 20.133 99.1175 20.4317C98.5628 20.6877 98.0935 21.0504 97.7095 21.5197C97.3255 21.989 97.0481 22.5437 96.8775 23.1837C96.7068 23.781 96.6215 24.421 96.6215 25.1037C96.6215 25.7437 96.7068 26.3837 96.8775 27.0237C97.0908 27.621 97.3895 28.1757 97.7735 28.6877C98.1575 29.157 98.6268 29.541 99.1815 29.8397C99.7361 30.0957 100.355 30.2237 101.037 30.2237C101.72 30.2237 102.317 30.0957 102.829 29.8397C103.384 29.541 103.832 29.157 104.173 28.6877C104.557 28.2184 104.835 27.685 105.005 27.0877C105.176 26.4477 105.261 25.8077 105.261 25.1677C105.261 24.5277 105.176 23.909 105.005 23.3117C104.835 22.6717 104.579 22.117 104.237 21.6477C103.896 21.1357 103.448 20.7304 102.893 20.4317C102.381 20.133 101.763 19.9837 101.037 19.9837ZM105.069 13.7757C104.899 12.8797 104.472 12.0904 103.789 11.4077C103.149 10.6824 102.339 10.3197 101.357 10.3197C100.333 10.3197 99.4801 10.6184 98.7975 11.2157C98.1575 11.813 97.6455 12.5384 97.2615 13.3917C96.8775 14.245 96.5788 15.1624 96.3655 16.1437C96.1948 17.125 96.1095 17.9997 96.1095 18.7677L96.1735 18.8317C96.9415 17.7224 97.8375 16.933 98.8615 16.4637C99.8855 15.9944 101.059 15.7597 102.381 15.7597C103.576 15.7597 104.728 16.0157 105.837 16.5277C106.989 17.0397 107.971 17.7224 108.781 18.5757C109.507 19.429 110.04 20.4104 110.381 21.5197C110.723 22.5864 110.893 23.6744 110.893 24.7837C110.893 26.1917 110.659 27.5144 110.189 28.7517C109.72 29.9464 109.059 31.013 108.205 31.9517C107.352 32.8477 106.328 33.573 105.133 34.1277C103.981 34.6397 102.68 34.8957 101.229 34.8957C99.1388 34.8957 97.4108 34.4904 96.0455 33.6797C94.6801 32.8264 93.5921 31.717 92.7815 30.3517C91.9708 28.9864 91.3948 27.4504 91.0535 25.7437C90.7548 24.037 90.6055 22.309 90.6055 20.5597C90.6055 18.8957 90.7975 17.2104 91.1815 15.5037C91.5655 13.7544 92.1841 12.197 93.0375 10.8317C93.9335 9.4237 95.0641 8.29304 96.4295 7.4397C97.7948 6.5437 99.4801 6.0957 101.485 6.0957C103.875 6.0957 105.88 6.77837 107.501 8.1437C109.123 9.46637 110.104 11.3437 110.445 13.7757H105.069Z" fill="white"/>
</svg>
