<svg width="54" height="45" viewBox="0 0 54 45" fill="none" xmlns="http://www.w3.org/2000/svg">
<path d="M51.1323 39.67C52.44 39.67 53.5 40.7301 53.5 42.0377C53.5 43.3453 52.44 44.4054 51.1323 44.4054H13.444C12.7394 44.4054 12.388 43.5523 12.888 43.056L16.0685 39.8991C16.2164 39.7524 16.4162 39.67 16.6245 39.67H51.1323Z" fill="white"/>
<path d="M38.0664 11.39C38.3735 11.6993 38.3717 12.1991 38.0623 12.5062L8.66975 41.6794C8.58989 41.7586 8.49386 41.8198 8.38843 41.859L1.23686 44.5126C0.601677 44.7481 -0.0151642 44.1265 0.224894 43.4929L2.92783 36.3575C2.96779 36.2521 3.03051 36.1564 3.1105 36.077L32.5016 6.90516C32.811 6.59814 33.3106 6.59997 33.6177 6.90925L38.0664 11.39Z" fill="white"/>
<path d="M37.5866 1.85902C39.1335 0.323789 41.6323 0.332998 43.1675 1.87983C44.7026 3.42663 44.6926 5.92549 43.1459 7.46066L41.6281 8.96665C41.3187 9.27359 40.8192 9.27171 40.5121 8.96247L36.0636 4.48183C35.7564 4.17241 35.7583 3.67248 36.0679 3.36543L37.5866 1.85902Z" fill="white"/>
</svg>
