<svg width="61" height="61" viewBox="0 0 61 61" fill="none" xmlns="http://www.w3.org/2000/svg">
<path d="M46.6738 0.238281C54.4058 0.238282 60.6738 6.5063 60.6738 14.2383V46.332C60.6738 54.064 54.4058 60.332 46.6738 60.332H14.5801C6.84809 60.332 0.580078 54.064 0.580078 46.332V14.2383C0.580079 6.5063 6.84809 0.238281 14.5801 0.238281H46.6738ZM37.833 16.3906C34.6122 11.2072 27.1363 11.1265 23.7822 16.1475L23.625 16.3906L7.47266 42.3867C6.7709 43.5163 6.74014 44.8806 7.11621 45.9541C7.48147 46.9959 9.19275 48.1288 10.6572 48.1289H15.0127C22.4537 48.1285 28.1999 42.2056 29.1006 33.3594L29.1221 33.2158C29.2571 32.513 29.8301 32.0449 30.4209 32.0449H31.0371C31.6671 32.0452 32.2766 32.5776 32.3564 33.3594L32.4023 33.7715C33.4372 42.3892 39.1203 48.1289 46.4453 48.1289H50.8008C52.265 48.1285 53.9766 46.9958 54.3418 45.9541C54.6942 44.9478 54.6885 43.686 54.1084 42.6016L53.9854 42.3867L37.833 16.3906Z" fill="white"/>
</svg>
