<svg width="55" height="65" viewBox="0 0 55 65" fill="none" xmlns="http://www.w3.org/2000/svg">
<path fill-rule="evenodd" clip-rule="evenodd" d="M28.3572 27.2074C21.9823 27.2074 16.8144 32.3753 16.8144 38.7502C16.8144 40.0768 17.0382 41.3511 17.4501 42.5375L17.4577 42.5594C17.6443 43.0934 17.869 43.6095 18.1287 44.1044L26.2101 62.7135L26.2219 62.7023C26.5647 63.5477 27.3938 64.144 28.3622 64.144C29.3745 64.144 30.2346 63.4925 30.5461 62.586L38.6677 43.9451C39.456 42.3837 39.9 40.6188 39.9 38.7502C39.9 32.3753 34.7321 27.2074 28.3572 27.2074ZM28.3499 33.8025C25.6178 33.8025 23.403 36.0174 23.403 38.7495C23.403 41.4816 25.6178 43.6964 28.3499 43.6964C31.082 43.6964 33.2968 41.4816 33.2968 38.7495C33.2968 36.0174 31.082 33.8025 28.3499 33.8025Z" fill="white"/>
<path d="M33.3374 28.3333C35.6058 29.42 37.4614 31.2282 38.6141 33.4579V44.0602L34.7674 52.8899C34.7137 52.8621 34.6572 52.8392 34.6051 52.8074L19.3909 43.5475L18.1825 44.2329L18.1287 44.1044C17.869 43.6095 17.6443 43.0934 17.4577 42.5594L17.4501 42.5375L17.4482 42.5324C17.0374 41.3475 16.8144 40.0748 16.8144 38.7502C16.8144 38.2431 16.8463 37.743 16.9097 37.2531C17.3541 33.8221 19.3058 30.8657 22.0782 29.065V39.0051L23.539 39.894C24.0558 42.0738 26.0121 43.6964 28.3499 43.6964C28.76 43.6963 29.1561 43.639 29.5371 43.5449L33.3374 45.8586V28.3333Z" fill="white"/>
<path d="M18.4273 1.02758C19.212 0.701024 20.1148 0.769793 20.8466 1.23113L36.0196 10.7951L50.4505 2.26945C51.2661 1.78751 52.2789 1.77932 53.1017 2.24884C53.9243 2.71842 54.4312 3.59473 54.4312 4.54192V41.5688C54.4308 42.5174 53.9214 43.3932 53.0966 43.8618L41.6157 50.3829L43.4502 46.1781C44.0154 45.0308 44.4503 43.8084 44.7436 42.5349L49.1546 40.0306V9.16416L38.6141 15.3916V25.4244C37.0494 24.2182 35.2693 23.276 33.3374 22.6779V15.34L22.0782 8.24177V23.1417C20.1058 23.9357 18.3208 25.095 16.8015 26.5323V8.08461L6.26104 14.312V44.9414L11.4553 41.9887L12.5477 44.5008C12.781 45.1419 13.051 45.7649 13.3567 46.3662L13.568 46.8557L4.92641 51.7691C4.10972 52.2331 3.10766 52.2287 2.29581 51.7562C1.48395 51.2837 0.984375 50.4154 0.984375 49.476V12.8099L1.00756 12.4621C1.11309 11.6656 1.57777 10.9526 2.28035 10.5374L18.0975 1.1899L18.4273 1.02758Z" fill="white"/>
</svg>
