<svg width="49" height="50" viewBox="0 0 49 50" fill="none" xmlns="http://www.w3.org/2000/svg">
<path d="M48.9531 30.8177V46.5005C48.9531 47.913 47.808 49.0581 46.3955 49.0581H30.7127L30.453 49.0456C29.1629 48.915 28.1551 47.825 28.1551 46.5005C28.1551 45.176 29.1629 44.086 30.453 43.9554L30.7127 43.9429H40.2213L26.8139 30.5355L26.6391 30.3432C25.8191 29.3386 25.8773 27.8555 26.8139 26.9189C27.7505 25.9823 29.2336 25.9241 30.2382 26.744L30.4305 26.9189L43.8379 40.3263V30.8177C43.8385 29.4057 44.9834 28.2601 46.3955 28.2601C47.8077 28.2601 48.9525 29.4057 48.9531 30.8177Z" fill="white"/>
<path d="M0.492188 18.835L0.492188 3.15221C0.492188 1.73968 1.63726 0.594604 3.04979 0.594604L18.7326 0.594604L18.9923 0.607093C20.2824 0.737735 21.2902 1.82772 21.2902 3.15221C21.2902 4.47669 20.2824 5.56668 18.9923 5.69732L18.7326 5.70981H9.224L22.6314 19.1172L22.8063 19.3096C23.6262 20.3141 23.568 21.7972 22.6314 22.7338C21.6948 23.6704 20.2117 23.7286 19.2071 22.9087L19.0148 22.7338L5.60739 9.32642V18.835C5.6068 20.247 4.46195 21.3926 3.04979 21.3926C1.63763 21.3926 0.492775 20.247 0.492188 18.835Z" fill="white"/>
</svg>
