<svg width="49" height="50" viewBox="0 0 49 50" fill="none" xmlns="http://www.w3.org/2000/svg">
<path d="M25.1187 44.6557V28.8605C25.1187 27.448 26.2637 26.3029 27.6763 26.3029H43.4739L43.7337 26.3154C45.0238 26.446 46.0315 27.536 46.0315 28.8605C46.0309 30.1845 45.0234 31.2726 43.7337 31.4031L43.4739 31.4181H33.853L47.3878 44.9529C48.3866 45.9517 48.3866 47.5732 47.3878 48.572C46.4516 49.5076 44.9703 49.5655 43.966 48.7469L43.7712 48.572L30.2339 35.0347V44.6557C30.2339 46.0682 29.0888 47.2133 27.6763 47.2133C26.2637 47.2133 25.1187 46.0682 25.1187 44.6557ZM0.991292 1.34383C1.9901 0.345025 3.60909 0.345025 4.6079 1.34383L18.1452 14.8811V5.25766C18.1456 3.84547 19.2905 2.70006 20.7028 2.70006C22.1151 2.70006 23.26 3.84547 23.2604 5.25766V21.0553C23.2604 22.4679 22.1153 23.6129 20.7028 23.6129H4.90512C3.49293 23.6125 2.34752 22.4676 2.34752 21.0553C2.34752 19.6431 3.49293 18.4981 4.90512 18.4977H14.5286L0.991292 4.96044C-0.00751384 3.96163 -0.00751384 2.34264 0.991292 1.34383Z" fill="white"/>
</svg>
