<svg width="52" height="44" viewBox="0 0 52 44" fill="none" xmlns="http://www.w3.org/2000/svg">
<path d="M29.1829 38.325C30.5248 38.325 31.6131 39.4133 31.6131 40.7552C31.6126 42.0967 30.5245 43.183 29.1829 43.183H3.04741C1.70584 43.183 0.617723 42.0967 0.617188 40.7552C0.617188 39.4133 1.70551 38.325 3.04741 38.325H29.1829ZM13.8498 25.4296C15.1915 25.4296 16.2797 26.5182 16.28 27.8598C16.28 29.2017 15.1917 30.29 13.8498 30.29H3.04741C1.70551 30.29 0.617188 29.2017 0.617188 27.8598C0.617495 26.5182 1.7057 25.4296 3.04741 25.4296H13.8498ZM48.6996 25.4296L48.9469 25.4421C50.172 25.5664 51.127 26.602 51.1273 27.8598C51.1273 29.1179 50.1721 30.1532 48.9469 30.2776L48.6996 30.29H21.5176C20.1757 30.29 19.0874 29.2017 19.0874 27.8598C19.0877 26.5182 20.1759 25.4296 21.5176 25.4296H48.6996ZM8.27501 12.8864L8.52227 12.8989C9.7475 13.0229 10.7048 14.0563 10.7052 15.3141C10.7052 16.5724 9.74783 17.6077 8.52227 17.7318L8.27501 17.7443H3.04741C1.70551 17.7443 0.617188 16.656 0.617188 15.3141C0.617694 13.9726 1.70582 12.8864 3.04741 12.8864H8.27501ZM28.486 12.8864L28.7358 12.8989C29.9603 13.0237 30.9158 14.0568 30.9163 15.3141C30.9163 16.656 29.8279 17.7443 28.486 17.7443H15.9403C14.5988 17.7438 13.5126 16.6557 13.5126 15.3141C13.5131 13.9729 14.5992 12.8869 15.9403 12.8864H28.486ZM48.6996 12.8864L48.9469 12.8989C50.1718 13.0232 51.1268 14.0565 51.1273 15.3141C51.1273 16.5722 50.1721 17.6075 48.9469 17.7318L48.6996 17.7443H36.1539C34.812 17.7443 33.7236 16.656 33.7236 15.3141C33.7241 13.9726 34.8123 12.8864 36.1539 12.8864H48.6996ZM30.9263 -0.0090332L31.1735 0.00345508C32.3992 0.127449 33.3565 1.16284 33.3565 2.42119C33.3565 3.67954 32.3992 4.71493 31.1735 4.83892L30.9263 4.85141H3.04741C1.70551 4.85141 0.617188 3.76309 0.617188 2.42119C0.617188 1.07929 1.70551 -0.0090332 3.04741 -0.0090332H30.9263ZM48.6996 -0.0090332L48.9469 0.00345508C50.1722 0.127783 51.1273 1.16309 51.1273 2.42119C51.1273 3.67929 50.1722 4.71459 48.9469 4.83892L48.6996 4.85141H38.2444C36.9025 4.85141 35.8142 3.76309 35.8142 2.42119C35.8142 1.07929 36.9025 -0.0090332 38.2444 -0.0090332H48.6996Z" fill="white"/>
</svg>
