<svg width="55" height="55" viewBox="0 0 55 55" fill="none" xmlns="http://www.w3.org/2000/svg">
<path d="M0.851562 27.5947C0.851643 25.6618 2.41862 24.0947 4.35156 24.0947H24.1953L24.1953 4.25098L24.2002 4.07129C24.2939 2.22195 25.8227 0.750972 27.6953 0.750977C29.5678 0.751154 31.0967 2.22206 31.1904 4.07129L31.1953 4.25098L31.1953 24.0947L51.0391 24.0947C52.9718 24.095 54.539 25.662 54.5391 27.5947C54.5391 29.5276 52.9718 31.0945 51.0391 31.0947H31.1953L31.1953 50.9385C31.1953 52.8713 29.6281 54.4383 27.6953 54.4385C25.7623 54.4385 24.1953 52.8715 24.1953 50.9385L24.1953 31.0947H4.35156C2.41857 31.0947 0.851562 29.5277 0.851562 27.5947Z" fill="white"/>
</svg>
