<svg width="2378" height="372" viewBox="0 0 2378 372" fill="none" xmlns="http://www.w3.org/2000/svg">
<path d="M573.586 228.341C574.902 241.499 579.902 250.709 588.586 255.972C597.27 261.235 607.665 263.867 619.77 263.867C623.98 263.867 628.717 263.604 633.98 263.078C639.506 262.288 644.638 260.972 649.375 259.13C654.111 257.288 657.927 254.657 660.822 251.236C663.98 247.551 665.427 242.815 665.164 237.025C664.901 231.236 662.796 226.499 658.848 222.815C654.901 219.131 649.769 216.236 643.454 214.131C637.401 211.762 630.428 209.789 622.533 208.21C614.638 206.631 606.612 204.92 598.454 203.078C590.033 201.236 581.876 199 573.981 196.368C566.35 193.736 559.376 190.184 553.06 185.71C547.008 181.237 542.139 175.579 538.455 168.737C534.771 161.632 532.929 152.948 532.929 142.685C532.929 131.632 535.561 122.422 540.824 115.053C546.35 107.422 553.192 101.369 561.35 96.8957C569.771 92.159 578.981 88.8695 588.981 87.0275C599.244 85.1854 608.981 84.2643 618.191 84.2643C628.717 84.2643 638.717 85.4485 648.191 87.8169C657.927 89.9222 666.611 93.4747 674.243 98.4747C682.137 103.475 688.585 110.053 693.585 118.211C698.848 126.106 702.137 135.711 703.453 147.027H656.48C654.375 136.237 649.375 129.001 641.48 125.316C633.849 121.632 625.033 119.79 615.033 119.79C611.875 119.79 608.06 120.053 603.586 120.58C599.375 121.106 595.297 122.159 591.349 123.737C587.665 125.053 584.507 127.158 581.876 130.053C579.244 132.685 577.928 136.237 577.928 140.711C577.928 146.237 579.77 150.711 583.455 154.132C587.402 157.553 592.402 160.447 598.454 162.816C604.77 164.921 611.875 166.763 619.77 168.342C627.664 169.921 635.822 171.631 644.243 173.474C652.401 175.316 660.427 177.552 668.322 180.184C676.216 182.816 683.19 186.368 689.243 190.842C695.558 195.315 700.558 200.973 704.242 207.815C708.19 214.657 710.163 223.078 710.163 233.078C710.163 245.183 707.4 255.446 701.874 263.867C696.348 272.288 689.111 279.13 680.164 284.393C671.48 289.656 661.743 293.472 650.954 295.84C640.164 298.209 629.507 299.393 618.98 299.393C606.086 299.393 594.112 297.945 583.06 295.051C572.271 292.156 562.797 287.814 554.639 282.025C546.745 275.972 540.429 268.604 535.692 259.92C531.219 250.972 528.85 240.446 528.587 228.341H573.586Z" fill="white"/>
<path d="M745.513 89.7906H788.144V117.422H788.934C795.249 105.58 804.065 97.1589 815.381 92.159C826.696 86.8959 838.933 84.2643 852.091 84.2643C868.143 84.2643 882.09 87.159 893.932 92.9484C906.037 98.4747 916.037 106.238 923.932 116.238C931.826 125.974 937.747 137.421 941.695 150.579C945.642 163.737 947.616 177.816 947.616 192.815C947.616 206.499 945.774 219.789 942.089 232.683C938.668 245.578 933.274 257.025 925.905 267.025C918.8 276.762 909.722 284.656 898.669 290.709C887.617 296.498 874.59 299.393 859.591 299.393C853.012 299.393 846.433 298.735 839.854 297.419C833.275 296.367 826.96 294.524 820.907 291.893C814.854 289.261 809.197 285.972 803.933 282.025C798.934 277.814 794.723 272.946 791.302 267.42H790.513V369.26H745.513V89.7906ZM902.616 192.026C902.616 182.816 901.432 173.868 899.064 165.184C896.695 156.5 893.143 148.869 888.406 142.29C883.669 135.448 877.748 130.053 870.643 126.106C863.538 121.895 855.38 119.79 846.17 119.79C827.223 119.79 812.881 126.369 803.144 139.527C793.671 152.684 788.934 170.184 788.934 192.026C788.934 202.289 790.118 211.894 792.486 220.841C795.118 229.525 798.934 237.025 803.933 243.341C808.933 249.657 814.854 254.657 821.696 258.341C828.802 262.025 836.959 263.867 846.17 263.867C856.433 263.867 865.117 261.762 872.222 257.551C879.327 253.341 885.117 247.946 889.59 241.367C894.327 234.525 897.616 226.894 899.458 218.473C901.564 209.789 902.616 200.973 902.616 192.026Z" fill="white"/>
<path d="M1156.56 248.472C1156.56 253.999 1157.22 257.946 1158.53 260.314C1160.11 262.683 1163.01 263.867 1167.22 263.867C1168.53 263.867 1170.11 263.867 1171.95 263.867C1173.79 263.867 1175.9 263.604 1178.27 263.078V294.261C1176.69 294.788 1174.58 295.314 1171.95 295.84C1169.58 296.63 1167.08 297.288 1164.45 297.814C1161.82 298.34 1159.19 298.735 1156.56 298.998C1153.93 299.261 1151.69 299.393 1149.85 299.393C1140.64 299.393 1133.01 297.551 1126.95 293.867C1120.9 290.182 1116.95 283.735 1115.11 274.525C1106.16 283.209 1095.11 289.525 1081.95 293.472C1069.06 297.419 1056.56 299.393 1044.45 299.393C1035.24 299.393 1026.43 298.077 1018.01 295.445C1009.59 293.077 1002.09 289.525 995.508 284.788C989.192 279.788 984.06 273.604 980.113 266.235C976.429 258.604 974.587 249.788 974.587 239.788C974.587 227.157 976.824 216.894 981.297 208.999C986.034 201.105 992.087 194.921 999.455 190.447C1007.09 185.973 1015.51 182.816 1024.72 180.973C1034.19 178.868 1043.66 177.289 1053.14 176.237C1061.3 174.658 1069.06 173.605 1076.43 173.079C1083.8 172.289 1090.24 171.105 1095.77 169.526C1101.56 167.947 1106.03 165.579 1109.19 162.421C1112.61 159 1114.32 154 1114.32 147.421C1114.32 141.632 1112.87 136.895 1109.98 133.211C1107.35 129.527 1103.93 126.764 1099.72 124.922C1095.77 122.816 1091.3 121.501 1086.3 120.974C1081.3 120.185 1076.56 119.79 1072.09 119.79C1059.45 119.79 1049.06 122.422 1040.9 127.685C1032.74 132.948 1028.14 141.106 1027.09 152.158H982.087C982.876 139 986.034 128.079 991.56 119.395C997.087 110.711 1004.06 103.738 1012.48 98.4747C1021.17 93.2116 1030.9 89.5274 1041.69 87.4222C1052.48 85.317 1063.53 84.2643 1074.85 84.2643C1084.85 84.2643 1094.72 85.317 1104.45 87.4222C1114.19 89.5274 1122.87 92.9484 1130.51 97.6852C1138.4 102.422 1144.72 108.606 1149.45 116.238C1154.19 123.606 1156.56 132.685 1156.56 143.474V248.472ZM1111.56 191.631C1104.72 196.105 1096.3 198.868 1086.3 199.921C1076.3 200.71 1066.3 202.026 1056.3 203.868C1051.56 204.657 1046.95 205.842 1042.48 207.42C1038.01 208.736 1034.06 210.71 1030.64 213.341C1027.22 215.71 1024.45 218.999 1022.35 223.21C1020.51 227.157 1019.59 232.025 1019.59 237.815C1019.59 242.815 1021.03 247.025 1023.93 250.446C1026.82 253.867 1030.24 256.63 1034.19 258.735C1038.4 260.578 1042.88 261.893 1047.61 262.683C1052.61 263.472 1057.09 263.867 1061.03 263.867C1066.03 263.867 1071.43 263.209 1077.22 261.893C1083.01 260.578 1088.4 258.341 1093.4 255.183C1098.66 252.025 1103.01 248.078 1106.43 243.341C1109.85 238.341 1111.56 232.289 1111.56 225.183V191.631Z" fill="white"/>
<path d="M1342.74 158.079C1340.9 145.448 1335.76 135.974 1327.34 129.658C1319.19 123.08 1308.79 119.79 1296.16 119.79C1290.37 119.79 1284.19 120.843 1277.61 122.948C1271.03 124.79 1264.98 128.474 1259.45 134C1253.92 139.264 1249.32 146.763 1245.63 156.5C1241.95 165.974 1240.11 178.474 1240.11 194C1240.11 202.421 1241.03 210.841 1242.87 219.262C1244.98 227.683 1248.13 235.183 1252.34 241.762C1256.82 248.341 1262.48 253.736 1269.32 257.946C1276.16 261.893 1284.45 263.867 1294.19 263.867C1307.34 263.867 1318.13 259.788 1326.55 251.63C1335.24 243.473 1340.63 232.025 1342.74 217.289H1387.74C1383.53 243.867 1373.4 264.262 1357.34 278.472C1341.55 292.419 1320.5 299.393 1294.19 299.393C1278.13 299.393 1263.92 296.761 1251.56 291.498C1239.45 285.972 1229.19 278.604 1220.77 269.393C1212.35 259.92 1205.9 248.736 1201.42 235.841C1197.21 222.947 1195.11 208.999 1195.11 194C1195.11 178.737 1197.21 164.395 1201.42 150.974C1205.64 137.553 1211.95 125.974 1220.37 116.238C1228.79 106.238 1239.19 98.4747 1251.56 92.9484C1264.19 87.159 1278.92 84.2643 1295.77 84.2643C1307.61 84.2643 1318.79 85.8433 1329.32 89.0011C1340.11 91.8958 1349.58 96.3694 1357.74 102.422C1366.16 108.475 1373 116.106 1378.26 125.316C1383.53 134.527 1386.69 145.448 1387.74 158.079H1342.74Z" fill="white"/>
<path d="M1564.44 173.868C1563.92 166.763 1562.34 159.921 1559.71 153.342C1557.34 146.763 1553.92 141.106 1549.44 136.369C1545.23 131.369 1539.97 127.422 1533.66 124.527C1527.6 121.369 1520.76 119.79 1513.13 119.79C1505.23 119.79 1498 121.237 1491.42 124.132C1485.1 126.764 1479.58 130.579 1474.84 135.579C1470.37 140.316 1466.68 145.974 1463.79 152.553C1461.16 159.132 1459.71 166.237 1459.45 173.868H1564.44ZM1459.45 203.473C1459.45 211.368 1460.5 218.999 1462.6 226.368C1464.97 233.736 1468.39 240.183 1472.87 245.709C1477.34 251.236 1483 255.709 1489.84 259.13C1496.68 262.288 1504.84 263.867 1514.31 263.867C1527.47 263.867 1538 261.104 1545.89 255.578C1554.05 249.788 1560.1 241.236 1564.05 229.92H1606.68C1604.31 240.973 1600.23 250.841 1594.44 259.525C1588.65 268.209 1581.68 275.577 1573.52 281.63C1565.37 287.419 1556.16 291.761 1545.89 294.656C1535.89 297.814 1525.37 299.393 1514.31 299.393C1498.26 299.393 1484.05 296.761 1471.68 291.498C1459.31 286.235 1448.79 278.867 1440.1 269.393C1431.68 259.92 1425.24 248.604 1420.76 235.446C1416.55 222.289 1414.45 207.815 1414.45 192.026C1414.45 177.552 1416.68 163.868 1421.16 150.974C1425.89 137.816 1432.47 126.369 1440.89 116.632C1449.58 106.632 1459.97 98.7378 1472.08 92.9484C1484.18 87.159 1497.87 84.2643 1513.13 84.2643C1529.18 84.2643 1543.52 87.6854 1556.16 94.5274C1569.05 101.106 1579.71 109.922 1588.13 120.974C1596.55 132.027 1602.6 144.79 1606.29 159.263C1610.23 173.474 1611.29 188.21 1609.44 203.473H1459.45Z" fill="white"/>
<path d="M1644.84 89.7906H1687.47V117.422H1688.26C1694.57 105.58 1703.39 97.1589 1714.7 92.159C1726.02 86.8959 1738.26 84.2643 1751.41 84.2643C1767.47 84.2643 1781.41 87.159 1793.26 92.9484C1805.36 98.4747 1815.36 106.238 1823.26 116.238C1831.15 125.974 1837.07 137.421 1841.02 150.579C1844.97 163.737 1846.94 177.816 1846.94 192.815C1846.94 206.499 1845.1 219.789 1841.41 232.683C1837.99 245.578 1832.6 257.025 1825.23 267.025C1818.12 276.762 1809.05 284.656 1797.99 290.709C1786.94 296.498 1773.91 299.393 1758.91 299.393C1752.34 299.393 1745.76 298.735 1739.18 297.419C1732.6 296.367 1726.28 294.524 1720.23 291.893C1714.18 289.261 1708.52 285.972 1703.26 282.025C1698.26 277.814 1694.05 272.946 1690.63 267.42H1689.84V369.26H1644.84V89.7906ZM1801.94 192.026C1801.94 182.816 1800.76 173.868 1798.39 165.184C1796.02 156.5 1792.47 148.869 1787.73 142.29C1782.99 135.448 1777.07 130.053 1769.97 126.106C1762.86 121.895 1754.7 119.79 1745.49 119.79C1726.55 119.79 1712.2 126.369 1702.47 139.527C1692.99 152.684 1688.26 170.184 1688.26 192.026C1688.26 202.289 1689.44 211.894 1691.81 220.841C1694.44 229.525 1698.26 237.025 1703.26 243.341C1708.26 249.657 1714.18 254.657 1721.02 258.341C1728.13 262.025 1736.28 263.867 1745.49 263.867C1755.76 263.867 1764.44 261.762 1771.55 257.551C1778.65 253.341 1784.44 247.946 1788.91 241.367C1793.65 234.525 1796.94 226.894 1798.78 218.473C1800.89 209.789 1801.94 200.973 1801.94 192.026Z" fill="white"/>
<path d="M1978.51 299.393C1962.2 299.393 1947.59 296.761 1934.7 291.498C1922.07 285.972 1911.28 278.472 1902.33 268.998C1893.65 259.525 1886.94 248.209 1882.2 235.052C1877.73 221.894 1875.49 207.42 1875.49 191.631C1875.49 176.105 1877.73 161.763 1882.2 148.606C1886.94 135.448 1893.65 124.132 1902.33 114.659C1911.28 105.185 1922.07 97.8168 1934.7 92.5537C1947.59 87.0275 1962.2 84.2643 1978.51 84.2643C1994.83 84.2643 2009.3 87.0275 2021.93 92.5537C2034.83 97.8168 2045.62 105.185 2054.3 114.659C2063.25 124.132 2069.96 135.448 2074.43 148.606C2079.17 161.763 2081.54 176.105 2081.54 191.631C2081.54 207.42 2079.17 221.894 2074.43 235.052C2069.96 248.209 2063.25 259.525 2054.3 268.998C2045.62 278.472 2034.83 285.972 2021.93 291.498C2009.3 296.761 1994.83 299.393 1978.51 299.393ZM1978.51 263.867C1988.51 263.867 1997.2 261.762 2004.57 257.551C2011.94 253.341 2017.99 247.815 2022.72 240.973C2027.46 234.131 2030.88 226.499 2032.99 218.078C2035.36 209.394 2036.54 200.578 2036.54 191.631C2036.54 182.947 2035.36 174.263 2032.99 165.579C2030.88 156.895 2027.46 149.263 2022.72 142.685C2017.99 135.843 2011.94 130.316 2004.57 126.106C1997.2 121.895 1988.51 119.79 1978.51 119.79C1968.51 119.79 1959.83 121.895 1952.46 126.106C1945.09 130.316 1939.04 135.843 1934.3 142.685C1929.57 149.263 1926.02 156.895 1923.65 165.579C1921.54 174.263 1920.49 182.947 1920.49 191.631C1920.49 200.578 1921.54 209.394 1923.65 218.078C1926.02 226.499 1929.57 234.131 1934.3 240.973C1939.04 247.815 1945.09 253.341 1952.46 257.551C1959.83 261.762 1968.51 263.867 1978.51 263.867Z" fill="white"/>
<path d="M2118.95 89.7906H2161.19V129.264H2161.97C2163.29 123.737 2165.79 118.343 2169.47 113.08C2173.42 107.817 2178.03 103.08 2183.29 98.8694C2188.82 94.3958 2194.87 90.8432 2201.45 88.2117C2208.03 85.5801 2214.74 84.2643 2221.58 84.2643C2226.84 84.2643 2230.4 84.3959 2232.24 84.6591C2234.34 84.9222 2236.45 85.1854 2238.55 85.4486V128.869C2235.39 128.343 2232.11 127.948 2228.68 127.685C2225.53 127.158 2222.37 126.895 2219.21 126.895C2211.58 126.895 2204.34 128.474 2197.5 131.632C2190.92 134.527 2185.13 139 2180.13 145.053C2175.13 150.842 2171.19 158.079 2168.29 166.763C2165.4 175.447 2163.95 185.447 2163.95 196.763V293.867H2118.95V89.7906Z" fill="white"/>
<path d="M2257.79 89.7906H2291.74V28.6073H2336.74V89.7906H2377.4V123.343H2336.74V232.289C2336.74 237.025 2336.87 241.104 2337.14 244.525C2337.66 247.946 2338.58 250.841 2339.9 253.209C2341.48 255.578 2343.71 257.42 2346.61 258.735C2349.5 259.788 2353.45 260.314 2358.45 260.314C2361.61 260.314 2364.77 260.314 2367.92 260.314C2371.08 260.051 2374.24 259.525 2377.4 258.735V293.472C2372.4 293.998 2367.53 294.524 2362.79 295.051C2358.06 295.577 2353.19 295.84 2348.19 295.84C2336.35 295.84 2326.74 294.788 2319.37 292.682C2312.27 290.314 2306.61 287.025 2302.4 282.814C2298.45 278.34 2295.69 272.814 2294.11 266.235C2292.79 259.657 2292 252.157 2291.74 243.736V123.343H2257.79V89.7906Z" fill="white"/>
<path fill-rule="evenodd" clip-rule="evenodd" d="M284.447 0.769531C332.136 0.769536 370.795 39.4286 370.795 87.117V285.061C370.795 332.749 332.136 371.408 284.447 371.408H86.5037C38.8153 371.408 0.15625 332.749 0.15625 285.061V87.117C0.156255 39.4286 38.8153 0.769531 86.5037 0.769531H284.447ZM229.92 100.392C210.055 68.4224 163.947 67.9245 143.26 98.8922L142.29 100.392L42.6674 260.727C38.3392 267.694 38.1495 276.109 40.469 282.73C42.7218 289.155 53.2764 296.142 62.3088 296.143H89.1719C135.065 296.141 170.506 259.61 176.061 205.05L176.194 204.164C177.027 199.83 180.561 196.943 184.205 196.942H188.005C191.891 196.944 195.65 200.228 196.142 205.05L196.426 207.591C202.808 260.743 237.86 296.143 283.038 296.143H309.901C318.932 296.141 329.488 289.155 331.741 282.73C333.915 276.523 333.879 268.741 330.301 262.052L329.543 260.727L229.92 100.392Z" fill="white"/>
</svg>
