<svg width="32" height="50" viewBox="0 0 32 50" fill="none" xmlns="http://www.w3.org/2000/svg">
<path fill-rule="evenodd" clip-rule="evenodd" d="M16.1896 0.32019C7.73592 0.32019 0.882812 7.17329 0.882812 15.627C0.882812 17.3862 1.17959 19.0761 1.72582 20.6494L1.7359 20.6784C1.98336 21.3865 2.2814 22.0709 2.62567 22.7272L13.3424 47.4046L13.3581 47.3897C13.8126 48.5109 14.9121 49.3016 16.1964 49.3016C17.5387 49.3016 18.6792 48.4377 19.0923 47.2355L29.8623 22.516C30.9077 20.4454 31.4965 18.105 31.4965 15.627C31.4965 7.17329 24.6434 0.32019 16.1896 0.32019ZM16.18 9.066C12.557 9.066 9.61992 12.003 9.61992 15.6261C9.61992 19.2491 12.557 22.1861 16.18 22.1861C19.803 22.1861 22.7401 19.2491 22.7401 15.6261C22.7401 12.003 19.803 9.066 16.18 9.066Z" fill="white"/>
</svg>

<svg width="32" height="50" viewBox="0 0 32 50" fill="none" xmlns="http://www.w3.org/2000/svg">
<path fill-rule="evenodd" clip-rule="evenodd" d="M16.1896 0.32019C7.73592 0.32019 0.882812 7.17329 0.882812 15.627C0.882812 17.3862 1.17959 19.0761 1.72582 20.6494L1.7359 20.6784C1.98336 21.3865 2.2814 22.0709 2.62567 22.7272L13.3424 47.4046L13.3581 47.3897C13.8126 48.5109 14.9121 49.3016 16.1964 49.3016C17.5387 49.3016 18.6792 48.4377 19.0923 47.2355L29.8623 22.516C30.9077 20.4454 31.4965 18.105 31.4965 15.627C31.4965 7.17329 24.6434 0.32019 16.1896 0.32019ZM16.18 9.066C12.557 9.066 9.61992 12.003 9.61992 15.6261C9.61992 19.2491 12.557 22.1861 16.18 22.1861C19.803 22.1861 22.7401 19.2491 22.7401 15.6261C22.7401 12.003 19.803 9.066 16.18 9.066Z" fill="white"/>
</svg>
