<svg width="62" height="57" viewBox="0 0 62 57" fill="none" xmlns="http://www.w3.org/2000/svg">
<path d="M33.9845 0.503296C49.4378 0.503633 61.9647 13.0314 61.965 28.4847C61.9649 43.9382 49.4379 56.4658 33.9845 56.4662C24.6918 56.4661 16.4575 51.9342 11.3722 44.9701L10.8898 44.2875L10.756 44.0697C10.1486 42.957 10.471 41.5421 11.5392 40.8099C12.6073 40.0785 14.0419 40.2887 14.8605 41.2562L15.0167 41.4603L15.4132 42.0199C19.5963 47.7489 26.3569 51.4632 33.9845 51.4633C46.675 51.4629 56.9629 41.1753 56.963 28.4847C56.9628 15.7943 46.6749 5.50656 33.9845 5.50623C23.2685 5.50631 14.2661 12.8417 11.7238 22.765C11.6756 22.9529 11.8189 23.1351 12.0128 23.1351H14.9513C16.5875 23.1357 17.5307 24.9927 16.5665 26.3148L10.34 34.8529C9.54072 35.9489 7.90582 35.9489 7.10657 34.8529L0.88001 26.3148C-0.0841658 24.9926 0.859898 23.1355 2.49622 23.1351H6.26868C6.41216 23.1349 6.53591 23.0326 6.56458 22.892C9.15619 10.1187 20.4465 0.503383 33.9845 0.503296ZM33.7745 12.3295C35.1559 12.3295 36.2764 13.4491 36.2765 14.8304V28.4828C36.2765 29.1473 36.497 29.793 36.9034 30.3187L42.8185 37.9691L42.965 38.1801C43.6349 39.2561 43.3944 40.6857 42.3702 41.4779C41.3457 42.2701 39.9003 42.1435 39.0275 41.224L38.8615 41.0297L31.9005 32.0277C31.4941 31.502 31.2736 30.8563 31.2736 30.1918V14.8304C31.2737 13.4492 32.3933 12.3296 33.7745 12.3295Z" fill="white"/>
</svg>
