<svg width="41" height="41" viewBox="0 0 41 41" fill="none" xmlns="http://www.w3.org/2000/svg">
<path d="M1.14231 1.85833C2.50916 0.491596 4.72526 0.491526 6.09206 1.85833L20.1237 15.89L34.1554 1.85833L34.2859 1.73472C35.6598 0.493297 37.781 0.53418 39.1051 1.85833C40.429 3.18249 40.4701 5.30371 39.2287 6.67756L39.1051 6.80807L25.0735 20.8397L39.1051 34.8714C40.4716 36.2382 40.4717 38.4544 39.1051 39.8211C37.7384 41.1878 35.5222 41.1876 34.1554 39.8211L20.1237 25.7895L6.09206 39.8211C4.72532 41.1879 2.50917 41.1877 1.14231 39.8211C-0.224521 38.4543 -0.224521 36.2382 1.14231 34.8714L15.174 20.8397L1.14231 6.80807C-0.224521 5.44124 -0.224521 3.22516 1.14231 1.85833Z" fill="white"/>
</svg>
