<svg width="55" height="53" viewBox="0 0 55 53" fill="none" xmlns="http://www.w3.org/2000/svg">
<path d="M7.76953 0.0681152C9.40189 0.0681152 10.7255 1.39184 10.7256 3.02417V27.6677C13.2716 28.8008 15.0468 31.3525 15.0469 34.3191C15.0469 37.2855 13.2713 39.8362 10.7256 40.9695V49.2556C10.7256 50.888 9.40196 52.2117 7.76953 52.2117C6.13728 52.2115 4.81445 50.8879 4.81445 49.2556V40.9695C2.2687 39.8362 0.492188 37.2855 0.492188 34.3191C0.492283 31.3525 2.26844 28.8008 4.81445 27.6677V3.02417C4.81457 1.39197 6.13735 0.0683216 7.76953 0.0681152ZM27.7256 0.0681152C29.3579 0.0681831 30.6815 1.39188 30.6816 3.02417V10.3679C33.2287 11.5006 35.0049 14.0519 35.0049 17.0193L34.9961 17.3933C34.8538 20.1995 33.1207 22.5848 30.6816 23.6697V49.2556C30.6816 50.888 29.358 52.2116 27.7256 52.2117C26.0932 52.2117 24.7695 50.888 24.7695 49.2556V23.6677C22.333 22.5818 20.6022 20.1977 20.46 17.3933L20.4512 17.0193C20.4512 14.0536 22.2248 11.5026 24.7695 10.3689V3.02417C24.7696 1.39184 26.0932 0.0681152 27.7256 0.0681152ZM47.6807 0.0681152C49.313 0.0681779 50.6366 1.39188 50.6367 3.02417V27.6687C53.1818 28.8022 54.9569 31.3532 54.957 34.3191C54.957 37.2849 53.1816 39.8348 50.6367 40.9685V49.2556C50.6367 50.888 49.313 52.2116 47.6807 52.2117C46.0484 52.2114 44.7256 50.8879 44.7256 49.2556V40.9695C42.1789 39.8366 40.4023 37.2862 40.4023 34.3191C40.4024 31.3519 42.1787 28.7995 44.7256 27.6667V3.02417C44.7257 1.39199 46.0485 0.0683635 47.6807 0.0681152ZM7.76953 31.2644C7.66202 31.2644 7.55581 31.2702 7.45117 31.281C7.41461 31.2848 7.37789 31.2896 7.3418 31.2947C7.32782 31.2966 7.31372 31.2984 7.2998 31.3005C7.27493 31.3044 7.25022 31.3088 7.22559 31.3132C7.19447 31.3188 7.1636 31.3253 7.13281 31.3318C7.11527 31.3355 7.0975 31.3395 7.08008 31.3435C7.05149 31.3501 7.02242 31.3566 6.99414 31.364C6.95394 31.3746 6.91351 31.3861 6.87402 31.3982C6.86861 31.3998 6.86282 31.4014 6.85742 31.4031C6.82652 31.4128 6.79609 31.4237 6.76562 31.4343C6.73698 31.4443 6.70794 31.4538 6.67969 31.4646C6.67512 31.4664 6.67057 31.4687 6.66602 31.4705C5.52488 31.9131 4.71494 33.0216 4.71484 34.3191C4.71484 35.5651 5.4615 36.6368 6.53125 37.1121L6.67578 37.1716C6.73151 37.1931 6.78852 37.212 6.8457 37.2302C6.86992 37.2379 6.89447 37.2446 6.91895 37.2517C7.04184 37.2875 7.16787 37.3165 7.29688 37.3367C7.32344 37.3408 7.35017 37.344 7.37695 37.3474C7.40022 37.3504 7.42381 37.3547 7.44727 37.3572C7.55313 37.3683 7.66073 37.3738 7.76953 37.3738C7.87818 37.3738 7.98608 37.3682 8.0918 37.3572C8.11523 37.3547 8.13886 37.3504 8.16211 37.3474C8.1889 37.344 8.21562 37.3408 8.24219 37.3367C8.37149 37.3165 8.49793 37.2876 8.62109 37.2517C8.64528 37.2447 8.66942 37.2378 8.69336 37.2302C8.80081 37.196 8.90656 37.1576 9.00879 37.1121C10.0785 36.6368 10.8242 35.5651 10.8242 34.3191C10.8241 33.0213 10.0146 31.913 8.87305 31.4705C8.86848 31.4687 8.86396 31.4664 8.85938 31.4646C8.8311 31.4538 8.80211 31.4443 8.77344 31.4343C8.74297 31.4237 8.71255 31.4128 8.68164 31.4031C8.67655 31.4015 8.67111 31.3998 8.66602 31.3982C8.62627 31.386 8.58538 31.3746 8.54492 31.364C8.51662 31.3566 8.4876 31.3501 8.45898 31.3435C8.44155 31.3395 8.42382 31.3355 8.40625 31.3318C8.37546 31.3253 8.3446 31.3188 8.31348 31.3132C8.28886 31.3088 8.26411 31.3044 8.23926 31.3005C8.22536 31.2984 8.21123 31.2966 8.19727 31.2947C8.16117 31.2896 8.12445 31.2848 8.08789 31.281C7.98337 31.2702 7.87691 31.2644 7.76953 31.2644ZM47.6797 31.2644C47.5713 31.2644 47.4638 31.27 47.3584 31.281C47.3259 31.2844 47.2938 31.2893 47.2617 31.2937C47.2444 31.2961 47.2263 31.2979 47.209 31.3005C47.1723 31.3062 47.1358 31.3131 47.0996 31.3201C47.0857 31.3227 47.0715 31.324 47.0576 31.3269C47.0218 31.3343 46.9864 31.3437 46.9512 31.3523C46.9349 31.3563 46.9185 31.3598 46.9023 31.364C46.8699 31.3725 46.8376 31.3828 46.8057 31.3923C46.7909 31.3967 46.7763 31.4014 46.7617 31.406L46.6094 31.4568C46.5864 31.4654 46.5637 31.475 46.541 31.4841C45.4181 31.9356 44.6251 33.0347 44.625 34.3191C44.625 35.5463 45.3487 36.6039 46.3926 37.0896L46.4414 37.1121C46.5428 37.1572 46.6473 37.1962 46.7539 37.2302C46.7838 37.2397 46.8144 37.248 46.8447 37.2566C46.8603 37.261 46.8759 37.2661 46.8916 37.2703C46.921 37.2781 46.9507 37.2858 46.9805 37.2927C47.0041 37.2983 47.028 37.3043 47.0518 37.3093C47.0796 37.3151 47.1077 37.3199 47.1357 37.325C47.1582 37.329 47.1815 37.3321 47.2041 37.3357C47.2346 37.3404 47.2651 37.3445 47.2959 37.3484C47.3162 37.3509 47.337 37.355 47.3574 37.3572C47.4633 37.3683 47.5709 37.3738 47.6797 37.3738C47.7882 37.3738 47.8954 37.3682 48.001 37.3572C48.0245 37.3547 48.048 37.3504 48.0713 37.3474C48.0983 37.344 48.1256 37.3408 48.1523 37.3367C48.172 37.3336 48.1914 37.3294 48.2109 37.3259C48.2474 37.3195 48.2843 37.3131 48.3203 37.3054C48.3265 37.3041 48.3327 37.3029 48.3389 37.3015C48.3804 37.2924 48.422 37.2821 48.4629 37.2712C48.4808 37.2665 48.4988 37.2617 48.5166 37.2566C48.5504 37.247 48.5839 37.2361 48.6172 37.2253C48.6268 37.2222 48.6369 37.2188 48.6465 37.2156C48.6879 37.2018 48.7289 37.1872 48.7695 37.1716C48.7733 37.1702 48.7774 37.1692 48.7812 37.1677C49.9236 36.7256 50.7344 35.6175 50.7344 34.3191C50.7343 33.0277 49.9324 31.9241 48.7998 31.4773C48.7866 31.4721 48.773 31.4667 48.7598 31.4617C48.7362 31.4528 48.7123 31.4446 48.6885 31.4363C48.6562 31.425 48.6236 31.4133 48.5908 31.4031C48.5856 31.4015 48.5804 31.3998 48.5752 31.3982C48.5352 31.3859 48.4948 31.3747 48.4541 31.364C48.4316 31.3581 48.4085 31.3528 48.3857 31.3474C48.3616 31.3417 48.3368 31.3359 48.3125 31.3308C48.2866 31.3254 48.2605 31.321 48.2344 31.3162C48.2052 31.3108 48.176 31.3051 48.1465 31.3005C48.1385 31.2993 48.13 31.2978 48.1221 31.2966C48.081 31.2907 48.0397 31.2853 47.998 31.281C47.8935 31.2702 47.7871 31.2644 47.6797 31.2644ZM27.7275 13.9646C27.5102 13.9646 27.2982 13.9878 27.0938 14.031C27.0636 14.0374 27.0337 14.0443 27.0039 14.0515C26.9883 14.0553 26.9725 14.0582 26.957 14.0623C26.9143 14.0734 26.872 14.0865 26.8301 14.0994C26.8253 14.1008 26.8202 14.1018 26.8154 14.1033C26.7798 14.1144 26.744 14.126 26.709 14.1384C26.6914 14.1446 26.6737 14.1514 26.6562 14.158C26.6361 14.1655 26.6156 14.1734 26.5957 14.1814C25.4692 14.6312 24.6729 15.7324 24.6729 17.0193C24.6729 18.2275 25.3748 19.2718 26.3926 19.7673L26.4883 19.8103C26.5845 19.8532 26.6835 19.8907 26.7842 19.9236C26.8247 19.9367 26.866 19.9492 26.9072 19.9607C27.0196 19.9922 27.1347 20.0174 27.252 20.0359C27.2826 20.0407 27.3138 20.0447 27.3447 20.0486C27.3649 20.0511 27.385 20.0542 27.4053 20.0564C27.5111 20.0675 27.6188 20.074 27.7275 20.074C27.8365 20.074 27.9448 20.0675 28.0508 20.0564C28.0634 20.0551 28.0763 20.053 28.0889 20.0515C28.1278 20.0469 28.1666 20.0419 28.2051 20.0359C28.2208 20.0334 28.2373 20.0308 28.2529 20.0281C28.2882 20.022 28.3236 20.0159 28.3584 20.0085C28.3763 20.0048 28.3943 19.9999 28.4121 19.9958C28.4485 19.9875 28.4846 19.9781 28.5205 19.9685C28.5257 19.9671 28.531 19.966 28.5361 19.9646C28.5768 19.9535 28.6172 19.9412 28.6572 19.9285C28.7125 19.9107 28.7674 19.8916 28.8213 19.8708L28.9648 19.8123C30.0352 19.3373 30.7831 18.2659 30.7832 17.0193C30.7832 15.7303 29.9839 14.6279 28.8545 14.1794C28.8379 14.1728 28.8214 14.1662 28.8047 14.1599C28.7758 14.149 28.7461 14.1387 28.7168 14.1287C28.6973 14.122 28.6778 14.1154 28.6582 14.1091C28.6283 14.0996 28.5977 14.0914 28.5674 14.0828C28.5485 14.0774 28.5298 14.0712 28.5107 14.0662C28.4859 14.0596 28.4606 14.0536 28.4355 14.0476C28.409 14.0413 28.3823 14.0347 28.3555 14.0291C28.3302 14.0238 28.3048 14.019 28.2793 14.0144C28.2533 14.0097 28.2265 14.0048 28.2002 14.0007C28.1779 13.9973 28.1553 13.9949 28.1328 13.9919C28.1046 13.9882 28.0763 13.9842 28.0479 13.9812C27.9427 13.9703 27.8356 13.9646 27.7275 13.9646Z" fill="white"/>
</svg>
