<svg width="48" height="56" viewBox="0 0 48 56" fill="none" xmlns="http://www.w3.org/2000/svg">
<path d="M34.9902 2.88065C35.3968 0.951176 37.2915 -0.28545 39.2207 0.119912C41.1504 0.526342 42.388 2.42185 41.9824 4.35136L39.6729 15.3211H44.4365L44.7393 15.3367C46.2319 15.4882 47.3971 16.7493 47.3975 18.282C47.3975 19.9171 46.0716 21.243 44.4365 21.243H38.4258L35.7324 34.035H40.6035L40.9492 34.0525C42.4376 34.2077 43.5993 35.4666 43.5996 36.9959C43.5992 38.5252 42.4374 39.7831 40.9492 39.9383L40.6299 39.9558H34.4873L31.875 52.3611L31.7666 52.7635C31.2125 54.4797 29.4393 55.5365 27.6348 55.157C25.7054 54.7503 24.4695 52.8557 24.875 50.9266L27.1846 39.9558H15.6465L13.0322 52.3738L12.9336 52.7527C12.3838 54.4757 10.6046 55.5373 8.7959 55.157C6.86643 54.7504 5.62978 52.8557 6.03516 50.9266L8.34375 39.9558H3.46094C1.82628 39.9558 0.500447 38.6308 0.5 36.9959C0.500309 35.361 1.82609 34.035 3.46094 34.035H9.59082L9.70898 33.4773L12.2852 21.243H7.25879C5.6239 21.2424 4.29785 19.9165 4.29785 18.282L4.3125 17.9793C4.46454 16.4871 5.72649 15.3216 7.25879 15.3211H13.5312L13.6494 14.7635L16.1514 2.88065C16.5579 0.951158 18.4526 -0.285449 20.3818 0.119912C22.3112 0.526383 23.5473 2.42161 23.1416 4.35136L20.833 15.3211H32.3701L32.4883 14.7635L34.9902 2.88065ZM19.5859 21.243L16.8926 34.035H28.4307L28.5488 33.4773L31.123 21.243H19.5859ZM2.03418 33.6189C1.9246 33.6653 1.81769 33.7168 1.71387 33.7732C1.8177 33.7168 1.9246 33.6653 2.03418 33.6189Z" fill="white"/>
</svg>
