<svg width="43" height="43" viewBox="0 0 43 43" fill="none" xmlns="http://www.w3.org/2000/svg">
<path d="M19.0988 27.1077C19.0988 28.4884 20.2185 29.6081 21.5992 29.6081C22.9796 29.6079 24.0987 28.4887 24.0989 27.1084V12.291C24.0989 11.4001 25.1761 10.9539 25.806 11.5839L28.9886 14.7665L29.1792 14.9377C30.161 15.7382 31.609 15.6814 32.5241 14.7665C33.4393 13.8513 33.4967 12.4027 32.6961 11.4208L32.5241 11.2309L23.7198 2.42662C22.5483 1.25504 20.6488 1.25504 19.4772 2.42662L10.6736 11.2302C9.69726 12.2065 9.69726 13.7895 10.6736 14.7658C11.6499 15.7421 13.2328 15.7421 14.2091 14.7658L17.3917 11.5832C18.0216 10.9532 19.0988 11.3994 19.0988 12.2903V27.1077Z" fill="white"/>
<path d="M0.367188 33.2622V26.1216C0.367188 24.7409 1.48648 23.6216 2.86719 23.6216C4.2479 23.6216 5.36719 24.7409 5.36719 26.1216V33.2622C5.36725 35.7474 7.38195 37.7622 9.86719 37.7622H33.3281C35.8134 37.7622 37.8281 35.7474 37.8281 33.2622V26.1216C37.8281 24.7409 38.9474 23.6216 40.3281 23.6216C41.7088 23.6216 42.8281 24.7409 42.8281 26.1216V33.2622C42.8281 38.5089 38.5748 42.7622 33.3281 42.7622H9.86719C4.62052 42.7622 0.367254 38.5089 0.367188 33.2622Z" fill="white"/>
</svg>
