ply
format ascii 1.0
comment 3D Gaussian Splatting Model
element vertex 30
property float x
property float y
property float z
property float opacity
property float scale_0
property float scale_1
property float scale_2
property float rot_0
property float rot_1
property float rot_2
property float rot_3
property uchar red
property uchar green
property uchar blue
end_header
0.000000 0.000000 0.206112 0.499905 -0.000403 -0.000403 -0.000403 1.000000 0.000000 0.000000 0.000000 76 103 146
0.000000 0.000000 0.366504 0.499905 -0.000403 -0.000403 -0.000403 1.000000 0.000000 0.000000 0.000000 97 121 157
0.000000 0.000000 0.540228 0.499905 -0.000403 -0.000403 -0.000403 1.000000 0.000000 0.000000 0.000000 233 234 238
0.000000 -0.000000 0.626502 0.499905 -0.000403 -0.000403 -0.000403 1.000000 0.000000 0.000000 0.000000 96 130 175
-0.000000 -0.000000 0.364617 0.499905 -0.000403 -0.000403 -0.000403 1.000000 0.000000 0.000000 0.000000 129 149 181
-0.000000 -0.000000 0.470118 0.499905 -0.000403 -0.000403 -0.000403 1.000000 0.000000 0.000000 0.000000 106 134 182
0.000000 -0.000000 0.170130 0.499905 -0.000403 -0.000403 -0.000403 1.000000 0.000000 0.000000 0.000000 115 138 172
0.000710 -0.000429 0.000011 0.499905 -0.000403 -0.000403 -0.000403 1.000000 0.000000 0.000000 0.000000 73 109 150
0.000000 0.000000 0.299137 0.499905 -0.000403 -0.000403 -0.000403 1.000000 0.000000 0.000000 0.000000 77 113 161
0.000000 0.000000 0.133041 0.499905 -0.000403 -0.000403 -0.000403 1.000000 0.000000 0.000000 0.000000 70 111 160
0.000000 -0.000000 0.601573 0.499905 -0.000403 -0.000403 -0.000403 1.000000 0.000000 0.000000 0.000000 231 234 238
0.000000 -0.000000 0.488404 0.499905 -0.000403 -0.000403 -0.000403 1.000000 0.000000 0.000000 0.000000 229 231 242
0.000000 -0.000000 0.246639 0.499905 -0.000403 -0.000403 -0.000403 1.000000 0.000000 0.000000 0.000000 40 96 141
-0.000000 0.000000 0.364770 0.499905 -0.000403 -0.000403 -0.000403 1.000000 0.000000 0.000000 0.000000 242 243 245
-0.000000 0.000000 0.299724 0.499905 -0.000403 -0.000403 -0.000403 1.000000 0.000000 0.000000 0.000000 52 99 146
-0.000000 0.000000 0.428378 0.499905 -0.000403 -0.000403 -0.000403 1.000000 0.000000 0.000000 0.000000 247 247 242
-0.000000 0.000000 0.283080 0.499905 -0.000403 -0.000403 -0.000403 1.000000 0.000000 0.000000 0.000000 251 251 250
-0.000000 0.000000 0.890828 0.499905 -0.000403 -0.000403 -0.000403 1.000000 0.000000 0.000000 0.000000 221 224 229
0.000000 -0.000000 0.460999 0.499905 -0.000403 -0.000403 -0.000403 1.000000 0.000000 0.000000 0.000000 102 125 169
0.000000 -0.000000 0.460999 0.499905 -0.000403 -0.000403 -0.000403 1.000000 0.000000 0.000000 0.000000 102 125 169
-0.000000 -0.000000 0.453611 0.499905 -0.000403 -0.000403 -0.000403 1.000000 0.000000 0.000000 0.000000 233 239 237
-0.000000 -0.000000 0.512955 0.499905 -0.000403 -0.000403 -0.000403 1.000000 0.000000 0.000000 0.000000 63 104 148
-0.000000 0.000000 0.432523 0.499905 -0.000403 -0.000403 -0.000403 1.000000 0.000000 0.000000 0.000000 79 113 158
0.000000 0.000000 0.427233 0.499905 -0.000403 -0.000403 -0.000403 1.000000 0.000000 0.000000 0.000000 160 181 208
-0.000000 0.000000 0.250693 0.499905 -0.000403 -0.000403 -0.000403 1.000000 0.000000 0.000000 0.000000 154 172 195
0.000000 0.000000 0.194923 0.499905 -0.000403 -0.000403 -0.000403 1.000000 0.000000 0.000000 0.000000 67 110 153
-0.000000 0.000000 0.366703 0.499905 -0.000403 -0.000403 -0.000403 1.000000 0.000000 0.000000 0.000000 114 142 181
-0.000000 0.000000 0.366703 0.499905 -0.000403 -0.000403 -0.000403 1.000000 0.000000 0.000000 0.000000 114 142 181
0.000000 0.000000 0.113627 0.499905 -0.000403 -0.000403 -0.000403 1.000000 0.000000 0.000000 0.000000 211 221 230
-0.000000 -0.000000 0.242390 0.499905 -0.000403 -0.000403 -0.000403 1.000000 0.000000 0.000000 0.000000 182 185 190
