ply
format ascii 1.0
comment 3D Gaussian Splatting Model
element vertex 30
property float x
property float y
property float z
property float opacity
property float scale_0
property float scale_1
property float scale_2
property float rot_0
property float rot_1
property float rot_2
property float rot_3
property uchar red
property uchar green
property uchar blue
end_header
0.051652 -0.000000 12.673971 0.501108 -0.000030 -0.000030 -0.000030 1.000000 0.000000 0.000000 0.000000 76 103 146
0.022239 -0.000000 12.832724 0.501108 -0.000030 -0.000030 -0.000030 1.000000 0.000000 0.000000 0.000000 97 121 157
0.441811 -0.000000 13.019357 0.501108 -0.000030 -0.000030 -0.000030 1.000000 0.000000 0.000000 0.000000 233 234 238
0.527685 -0.000000 13.107900 0.501108 -0.000030 -0.000030 -0.000030 1.000000 0.000000 0.000000 0.000000 96 130 175
0.245426 -0.000000 12.838436 0.501108 -0.000030 -0.000030 -0.000030 1.000000 0.000000 0.000000 0.000000 129 149 181
0.424303 -0.000000 12.948882 0.501108 -0.000030 -0.000030 -0.000030 1.000000 0.000000 0.000000 0.000000 106 134 182
0.020532 -0.000000 12.636328 0.501108 -0.000030 -0.000030 -0.000030 1.000000 0.000000 0.000000 0.000000 115 138 172
0.011874 -0.000000 12.042307 0.501108 -0.000030 -0.000030 -0.000030 1.000000 0.000000 0.000000 0.000000 73 109 150
0.043232 -0.000000 12.766531 0.501108 -0.000030 -0.000030 -0.000030 1.000000 0.000000 0.000000 0.000000 77 113 161
0.050565 -0.000000 12.600897 0.501108 -0.000030 -0.000030 -0.000030 1.000000 0.000000 0.000000 0.000000 70 111 160
0.500120 -0.000000 13.082237 0.501108 -0.000030 -0.000030 -0.000030 1.000000 0.000000 0.000000 0.000000 231 234 238
0.363447 -0.000000 12.965410 0.501108 -0.000030 -0.000030 -0.000030 1.000000 0.000000 0.000000 0.000000 229 231 242
0.019600 -0.000000 12.712751 0.501108 -0.000030 -0.000030 -0.000030 1.000000 0.000000 0.000000 0.000000 40 96 141
0.294237 -0.000000 12.840033 0.501108 -0.000030 -0.000030 -0.000030 1.000000 0.000000 0.000000 0.000000 242 243 245
0.017328 -0.000000 12.765668 0.501108 -0.000030 -0.000030 -0.000030 1.000000 0.000000 0.000000 0.000000 52 99 146
0.411272 -0.000000 12.906857 0.501108 -0.000030 -0.000030 -0.000030 1.000000 0.000000 0.000000 0.000000 247 247 242
0.186972 -0.000000 12.755233 0.501108 -0.000030 -0.000030 -0.000030 1.000000 0.000000 0.000000 0.000000 251 251 250
0.016657 -0.000000 13.356506 0.501108 -0.000030 -0.000030 -0.000030 1.000000 0.000000 0.000000 0.000000 221 224 229
0.313546 -0.000000 12.936676 0.501108 -0.000030 -0.000030 -0.000030 1.000000 0.000000 0.000000 0.000000 102 125 169
0.313546 -0.000000 12.936676 0.501108 -0.000030 -0.000030 -0.000030 1.000000 0.000000 0.000000 0.000000 102 125 169
0.328365 -0.000000 12.929708 0.501108 -0.000030 -0.000030 -0.000030 1.000000 0.000000 0.000000 0.000000 233 239 237
0.041567 -0.000000 12.980127 0.501108 -0.000030 -0.000030 -0.000030 1.000000 0.000000 0.000000 0.000000 63 104 148
0.045750 -0.000000 12.899955 0.501108 -0.000030 -0.000030 -0.000030 1.000000 0.000000 0.000000 0.000000 79 113 158
0.040500 -0.000000 12.894404 0.501108 -0.000030 -0.000030 -0.000030 1.000000 0.000000 0.000000 0.000000 160 181 208
0.047774 -0.000000 12.718346 0.501108 -0.000030 -0.000030 -0.000030 1.000000 0.000000 0.000000 0.000000 154 172 195
0.027860 -0.000000 12.661561 0.501108 -0.000030 -0.000030 -0.000030 1.000000 0.000000 0.000000 0.000000 67 110 153
0.265576 -0.000000 12.841112 0.501108 -0.000030 -0.000030 -0.000030 1.000000 0.000000 0.000000 0.000000 114 142 181
0.265576 -0.000000 12.841112 0.501108 -0.000030 -0.000030 -0.000030 1.000000 0.000000 0.000000 0.000000 114 142 181
0.139340 -0.000000 12.584493 0.501108 -0.000030 -0.000030 -0.000030 1.000000 0.000000 0.000000 0.000000 211 221 230
0.302635 -0.000000 12.718052 0.501108 -0.000030 -0.000030 -0.000030 1.000000 0.000000 0.000000 0.000000 182 185 190
