ply
format ascii 1.0
comment 3D Gaussian Splatting Model
element vertex 30
property float x
property float y
property float z
property float opacity
property float scale_0
property float scale_1
property float scale_2
property float rot_0
property float rot_1
property float rot_2
property float rot_3
property uchar red
property uchar green
property uchar blue
end_header
0.000000 -0.000440 0.000002 0.500677 -0.000279 -0.000279 -0.000279 1.000000 0.000000 0.000000 0.000000 76 103 146
-0.000044 -0.000481 0.000000 0.500677 -0.000279 -0.000279 -0.000279 1.000000 0.000000 0.000000 0.000000 97 121 157
-0.000000 0.000193 0.000000 0.500677 -0.000279 -0.000279 -0.000279 1.000000 0.000000 0.000000 0.000000 233 234 238
0.000430 0.000000 0.000000 0.500677 -0.000279 -0.000279 -0.000279 1.000000 0.000000 0.000000 0.000000 96 130 175
-0.000000 0.000354 0.000022 0.500677 -0.000279 -0.000279 -0.000279 1.000000 0.000000 0.000000 0.000000 129 149 181
-0.000000 -0.000629 0.000000 0.500677 -0.000279 -0.000279 -0.000279 1.000000 0.000000 0.000000 0.000000 106 134 182
0.000000 -0.000014 0.000282 0.500677 -0.000279 -0.000279 -0.000279 1.000000 0.000000 0.000000 0.000000 115 138 172
-0.000000 -0.000227 -0.000000 0.500677 -0.000279 -0.000279 -0.000279 1.000000 0.000000 0.000000 0.000000 73 109 150
-0.000016 -0.000547 0.000002 0.500677 -0.000279 -0.000279 -0.000279 1.000000 0.000000 0.000000 0.000000 77 113 161
0.000000 0.000284 -0.000000 0.500677 -0.000279 -0.000279 -0.000279 1.000000 0.000000 0.000000 0.000000 70 111 160
0.000000 -0.000000 0.000385 0.500677 -0.000279 -0.000279 -0.000279 1.000000 0.000000 0.000000 0.000000 231 234 238
0.000201 -0.000000 -0.000000 0.500677 -0.000279 -0.000279 -0.000279 1.000000 0.000000 0.000000 0.000000 229 231 242
-0.000000 -0.000000 -0.000468 0.500677 -0.000279 -0.000279 -0.000279 1.000000 0.000000 0.000000 0.000000 40 96 141
0.000030 0.000387 0.000000 0.500677 -0.000279 -0.000279 -0.000279 1.000000 0.000000 0.000000 0.000000 242 243 245
-0.000129 0.000201 0.000000 0.500677 -0.000279 -0.000279 -0.000279 1.000000 0.000000 0.000000 0.000000 52 99 146
-0.000000 0.000321 0.000001 0.500677 -0.000279 -0.000279 -0.000279 1.000000 0.000000 0.000000 0.000000 247 247 242
-0.000550 0.000001 0.000000 0.500677 -0.000279 -0.000279 -0.000279 1.000000 0.000000 0.000000 0.000000 251 251 250
0.000000 -0.000000 0.000291 0.500677 -0.000279 -0.000279 -0.000279 1.000000 0.000000 0.000000 0.000000 221 224 229
0.000000 0.000191 -0.000000 0.500677 -0.000279 -0.000279 -0.000279 1.000000 0.000000 0.000000 0.000000 102 125 169
0.000000 0.000191 -0.000000 0.500677 -0.000279 -0.000279 -0.000279 1.000000 0.000000 0.000000 0.000000 102 125 169
-0.000000 0.000093 -0.000034 0.500677 -0.000279 -0.000279 -0.000279 1.000000 0.000000 0.000000 0.000000 233 239 237
0.000000 0.000472 -0.000006 0.500677 -0.000279 -0.000279 -0.000279 1.000000 0.000000 0.000000 0.000000 63 104 148
0.000000 0.000387 -0.000000 0.500677 -0.000279 -0.000279 -0.000279 1.000000 0.000000 0.000000 0.000000 79 113 158
-0.000000 -0.000000 0.000172 0.500677 -0.000279 -0.000279 -0.000279 1.000000 0.000000 0.000000 0.000000 160 181 208
0.000227 -0.000000 0.000000 0.500677 -0.000279 -0.000279 -0.000279 1.000000 0.000000 0.000000 0.000000 154 172 195
-0.000000 0.000174 0.000000 0.500677 -0.000279 -0.000279 -0.000279 1.000000 0.000000 0.000000 0.000000 67 110 153
-0.000014 0.000000 -0.000199 0.500677 -0.000279 -0.000279 -0.000279 1.000000 0.000000 0.000000 0.000000 114 142 181
-0.000014 0.000000 -0.000199 0.500677 -0.000279 -0.000279 -0.000279 1.000000 0.000000 0.000000 0.000000 114 142 181
-0.000026 0.000549 -0.000000 0.500677 -0.000279 -0.000279 -0.000279 1.000000 0.000000 0.000000 0.000000 211 221 230
-0.000055 0.000028 0.000275 0.500677 -0.000279 -0.000279 -0.000279 1.000000 0.000000 0.000000 0.000000 182 185 190
