<svg width="3159" height="460" viewBox="0 0 3159 460" fill="none" xmlns="http://www.w3.org/2000/svg">
<mask id="mask0_431_2175" style="mask-type:luminance" maskUnits="userSpaceOnUse" x="320" y="0" width="90" height="90">
<path d="M320.724 0.621094H409.229V89.1263H320.724V0.621094Z" fill="white"/>
</mask>
<g mask="url(#mask0_431_2175)">
<mask id="mask1_431_2175" style="mask-type:luminance" maskUnits="userSpaceOnUse" x="320" y="0" width="90" height="90">
<path d="M364.974 0.621094C340.536 0.621094 320.724 20.4336 320.724 44.8763C320.724 69.3138 340.536 89.1263 364.974 89.1263C389.416 89.1263 409.229 69.3138 409.229 44.8763C409.229 20.4336 389.416 0.621094 364.974 0.621094Z" fill="white"/>
</mask>
<g mask="url(#mask1_431_2175)">
<path d="M320.724 0.621094H409.229V89.1263H320.724V0.621094Z" fill="white"/>
</g>
</g>
<mask id="mask2_431_2175" style="mask-type:luminance" maskUnits="userSpaceOnUse" x="320" y="185" width="90" height="90">
<path d="M320.724 185.656H409.229V274.156H320.724V185.656Z" fill="white"/>
</mask>
<g mask="url(#mask2_431_2175)">
<mask id="mask3_431_2175" style="mask-type:luminance" maskUnits="userSpaceOnUse" x="320" y="185" width="90" height="90">
<path d="M364.974 185.656C340.536 185.656 320.724 205.469 320.724 229.906C320.724 254.344 340.536 274.156 364.974 274.156C389.416 274.156 409.229 254.344 409.229 229.906C409.229 205.469 389.416 185.656 364.974 185.656Z" fill="white"/>
</mask>
<g mask="url(#mask3_431_2175)">
<path d="M320.724 185.656H409.229V274.156H320.724V185.656Z" fill="white"/>
</g>
</g>
<mask id="mask4_431_2175" style="mask-type:luminance" maskUnits="userSpaceOnUse" x="320" y="370" width="90" height="90">
<path d="M320.724 370.957H409.229V459.462H320.724V370.957Z" fill="white"/>
</mask>
<g mask="url(#mask4_431_2175)">
<mask id="mask5_431_2175" style="mask-type:luminance" maskUnits="userSpaceOnUse" x="320" y="370" width="90" height="90">
<path d="M364.974 370.957C340.536 370.957 320.724 390.77 320.724 415.207C320.724 439.65 340.536 459.462 364.974 459.462C389.416 459.462 409.229 439.65 409.229 415.207C409.229 390.77 389.416 370.957 364.974 370.957Z" fill="white"/>
</mask>
<g mask="url(#mask5_431_2175)">
<path d="M320.724 370.957H409.229V459.462H320.724V370.957Z" fill="white"/>
</g>
</g>
<mask id="mask6_431_2175" style="mask-type:luminance" maskUnits="userSpaceOnUse" x="0" y="185" width="90" height="90">
<path d="M0.620117 185.926H89.1253V274.431H0.620117V185.926Z" fill="white"/>
</mask>
<g mask="url(#mask6_431_2175)">
<mask id="mask7_431_2175" style="mask-type:luminance" maskUnits="userSpaceOnUse" x="0" y="185" width="90" height="90">
<path d="M44.8701 185.926C20.4326 185.926 0.620117 205.738 0.620117 230.176C0.620117 254.618 20.4326 274.431 44.8701 274.431C69.3128 274.431 89.1253 254.618 89.1253 230.176C89.1253 205.738 69.3128 185.926 44.8701 185.926Z" fill="white"/>
</mask>
<g mask="url(#mask7_431_2175)">
<path d="M0.620117 185.926H89.1253V274.431H0.620117V185.926Z" fill="white"/>
</g>
</g>
<mask id="mask8_431_2175" style="mask-type:luminance" maskUnits="userSpaceOnUse" x="158" y="278" width="89" height="89">
<path d="M158.484 278.172H246.984V366.672H158.484V278.172Z" fill="white"/>
</mask>
<g mask="url(#mask8_431_2175)">
<mask id="mask9_431_2175" style="mask-type:luminance" maskUnits="userSpaceOnUse" x="158" y="278" width="89" height="89">
<path d="M202.734 278.172C178.297 278.172 158.484 297.984 158.484 322.422C158.484 346.859 178.297 366.672 202.734 366.672C227.177 366.672 246.984 346.859 246.984 322.422C246.984 297.984 227.177 278.172 202.734 278.172Z" fill="white"/>
</mask>
<g mask="url(#mask9_431_2175)">
<path d="M158.484 278.172H246.984V366.672H158.484V278.172Z" fill="white"/>
</g>
</g>
<mask id="mask10_431_2175" style="mask-type:luminance" maskUnits="userSpaceOnUse" x="158" y="93" width="89" height="89">
<path d="M158.484 93.1367H246.984V181.642H158.484V93.1367Z" fill="white"/>
</mask>
<g mask="url(#mask10_431_2175)">
<mask id="mask11_431_2175" style="mask-type:luminance" maskUnits="userSpaceOnUse" x="158" y="93" width="89" height="89">
<path d="M202.734 93.1367C178.297 93.1367 158.484 112.949 158.484 137.392C158.484 161.829 178.297 181.642 202.734 181.642C227.177 181.642 246.984 161.829 246.984 137.392C246.984 112.949 227.177 93.1367 202.734 93.1367Z" fill="white"/>
</mask>
<g mask="url(#mask11_431_2175)">
<path d="M158.484 93.1367H246.984V181.642H158.484V93.1367Z" fill="white"/>
</g>
</g>
<mask id="mask12_431_2175" style="mask-type:luminance" maskUnits="userSpaceOnUse" x="484" y="277" width="89" height="90">
<path d="M484.058 277.895H572.558V366.4H484.058V277.895Z" fill="white"/>
</mask>
<g mask="url(#mask12_431_2175)">
<mask id="mask13_431_2175" style="mask-type:luminance" maskUnits="userSpaceOnUse" x="484" y="277" width="89" height="90">
<path d="M528.308 277.895C503.87 277.895 484.058 297.707 484.058 322.15C484.058 346.587 503.87 366.4 528.308 366.4C552.745 366.4 572.558 346.587 572.558 322.15C572.558 297.707 552.745 277.895 528.308 277.895Z" fill="white"/>
</mask>
<g mask="url(#mask13_431_2175)">
<path d="M484.058 277.895H572.558V366.4H484.058V277.895Z" fill="white"/>
</g>
</g>
<mask id="mask14_431_2175" style="mask-type:luminance" maskUnits="userSpaceOnUse" x="484" y="92" width="89" height="90">
<path d="M484.058 92.8633H572.558V181.368H484.058V92.8633Z" fill="white"/>
</mask>
<g mask="url(#mask14_431_2175)">
<mask id="mask15_431_2175" style="mask-type:luminance" maskUnits="userSpaceOnUse" x="484" y="92" width="89" height="90">
<path d="M528.308 92.8633C503.87 92.8633 484.058 112.676 484.058 137.113C484.058 161.556 503.87 181.368 528.308 181.368C552.745 181.368 572.558 161.556 572.558 137.113C572.558 112.676 552.745 92.8633 528.308 92.8633Z" fill="white"/>
</mask>
<g mask="url(#mask15_431_2175)">
<path d="M484.058 92.8633H572.558V181.368H484.058V92.8633Z" fill="white"/>
</g>
</g>
<mask id="mask16_431_2175" style="mask-type:luminance" maskUnits="userSpaceOnUse" x="641" y="186" width="90" height="89">
<path d="M641.917 186.199H730.422V274.704H641.917V186.199Z" fill="white"/>
</mask>
<g mask="url(#mask16_431_2175)">
<mask id="mask17_431_2175" style="mask-type:luminance" maskUnits="userSpaceOnUse" x="641" y="186" width="90" height="89">
<path d="M686.172 186.199C661.729 186.199 641.917 206.012 641.917 230.454C641.917 254.892 661.729 274.704 686.172 274.704C710.61 274.704 730.422 254.892 730.422 230.454C730.422 206.012 710.61 186.199 686.172 186.199Z" fill="white"/>
</mask>
<g mask="url(#mask17_431_2175)">
<path d="M641.917 186.199H730.422V274.704H641.917V186.199Z" fill="white"/>
</g>
</g>
<path d="M1072.7 341.56H1109.73V245.352H1232.05V341.56H1268.75V110.133H1232.05V210.971H1109.73V110.133H1072.7V341.56Z" fill="white"/>
<path d="M1438.69 341.56H1478.03L1499.85 292.961H1625.15L1647.3 341.56H1686.64L1582.83 110.133H1542.5L1438.69 341.56ZM1513.74 259.237L1562.66 149.143L1611.6 259.237H1513.74Z" fill="white"/>
<path d="M1856.58 341.56H1893.94V178.237L2025.19 341.56H2053.3V110.133H2016.26V274.779L1885.01 110.133H1856.58V341.56Z" fill="white"/>
<path d="M2330.02 346.19C2378.29 346.19 2425.9 326.685 2425.9 274.779C2425.9 223.534 2380.6 210.638 2333 203.695C2302.58 199.398 2276.79 193.117 2276.79 170.633C2276.79 150.799 2299.27 137.904 2330.35 137.904C2354.49 137.904 2376.64 147.82 2387.54 164.023L2415.65 145.18C2396.14 114.102 2362.75 106.164 2329.35 106.164C2287.04 106.164 2240.09 125.669 2240.09 169.971C2240.09 219.565 2283.74 230.805 2329.69 237.419C2362.42 242.044 2388.87 250.971 2388.87 274.779C2388.87 304.201 2358.12 313.128 2330.35 313.128C2303.57 313.128 2275.14 303.211 2258.28 275.107L2230.51 293.622C2251.66 332.633 2285.39 346.19 2330.02 346.19Z" fill="white"/>
<path d="M2605.42 341.56H2776.35V305.195H2642.45V243.039H2770.07V208.654H2642.45V146.169H2775.35V110.133H2605.42V341.56Z" fill="white"/>
<path d="M2961.82 341.56H2999.18V178.237L3130.43 341.56H3158.53V110.133H3121.5V274.779L2990.25 110.133H2961.82V341.56Z" fill="white"/>
</svg>
