<svg width="59" height="66" viewBox="0 0 59 66" fill="none" xmlns="http://www.w3.org/2000/svg">
<path d="M30.0059 51.8247C31.1232 51.8247 32.0291 52.7309 32.0293 53.8482V57.5132C32.0295 58.4474 33.0413 59.0318 33.8506 58.565L37.0195 56.7368C37.9874 56.1786 39.2247 56.5104 39.7832 57.4781L40.1152 58.0533C40.6735 59.0211 40.3418 60.2584 39.374 60.8169L32.4766 64.7964C30.7463 65.7946 28.6138 65.7945 26.8838 64.7954L19.9951 60.8169C19.0276 60.258 18.6961 59.0199 19.2549 58.0523L19.5869 57.4771C20.1459 56.5098 21.383 56.1792 22.3506 56.7378L25.5137 58.564C26.323 59.0311 27.3349 58.4467 27.335 57.5122V53.8482C27.3352 52.731 28.2412 51.8249 29.3584 51.8247H30.0059ZM3.55469 36.566C4.67213 36.5662 5.57823 37.4719 5.57812 38.5894L5.57715 42.2427C5.5773 43.1769 6.5892 43.7612 7.39844 43.2945L10.5713 41.4624C11.5391 40.9037 12.7772 41.2358 13.3359 42.2036L13.6592 42.7642C14.2175 43.732 13.8856 44.9693 12.918 45.5279L9.74707 47.3589C8.93802 47.826 8.93748 48.9938 9.74609 49.4615L12.9131 51.2915C13.8804 51.8505 14.2118 53.0877 13.6533 54.0552L13.3213 54.6314C12.7622 55.5988 11.5242 55.9296 10.5566 55.3706L3.66211 51.3863C1.98642 50.4181 0.934026 48.6554 0.870117 46.73L0.867188 46.5435L0.868164 38.5884C0.868366 37.471 1.77422 36.5649 2.8916 36.565L3.55469 36.566ZM56.4727 36.563C57.5901 36.5635 58.4955 37.47 58.4951 38.5874L58.4932 46.5503C58.4925 48.5479 57.4263 50.3944 55.6963 51.3931L48.8057 55.3697C47.838 55.9277 46.6016 55.5958 46.043 54.6285L45.7109 54.0542C45.1521 53.0864 45.4833 51.8484 46.4512 51.2896L49.6172 49.4615C50.4263 48.994 50.4265 47.8261 49.6172 47.3589L46.4424 45.5269C45.4746 44.968 45.1432 43.73 45.7021 42.7622L46.0264 42.2017C46.5853 41.2347 47.8216 40.9033 48.7891 41.4615L51.9619 43.2935C52.7711 43.7607 53.7828 43.1761 53.7832 42.2417L53.7852 38.5855C53.7857 37.4683 54.6914 36.5629 55.8086 36.563H56.4727ZM37.0146 26.1314C37.982 25.5727 39.2192 25.9035 39.7783 26.8706L40.1104 27.4458C40.6691 28.4133 40.3383 29.6504 39.3711 30.2095L32.4756 34.1939C32.2174 34.3431 32.0539 34.6129 32.0381 34.9107C32.0387 34.9208 32.04 34.9391 32.04 34.9585L32.0391 42.9136C32.0388 44.0309 31.1329 44.937 30.0156 44.937H29.3486C28.2313 44.937 27.3255 44.0309 27.3252 42.9136L27.3242 34.9585C27.3242 34.9404 27.3248 34.9235 27.3252 34.9146V34.9126C27.31 34.6136 27.1469 34.3432 26.8887 34.1939L19.9932 30.2095C19.0259 29.6505 18.6943 28.4133 19.2529 27.4458L19.585 26.8706C20.144 25.9033 21.3821 25.5726 22.3496 26.1314L29.2451 30.1148C29.513 30.2695 29.8513 30.2695 30.1191 30.1148L37.0146 26.1314ZM10.5576 10.9097C11.5254 10.3513 12.7626 10.6832 13.3213 11.6509L13.6533 12.2251C14.212 13.1929 13.8807 14.431 12.9131 14.9898L9.74609 16.8169C8.93668 17.2842 8.93669 18.4531 9.74609 18.9204L12.9209 20.7535C13.8887 21.3122 14.2207 22.5493 13.6621 23.5171L13.3379 24.0786C12.779 25.046 11.5418 25.3765 10.5742 24.8179L7.40137 22.9868C6.5922 22.5197 5.58054 23.1033 5.58008 24.0376L5.5791 27.6929C5.57877 28.8104 4.67214 29.7166 3.55469 29.7163L2.89062 29.7154C1.77334 29.7149 0.867959 28.8092 0.868164 27.6919L0.871094 19.729C0.871735 17.7314 1.93798 15.8859 3.66797 14.8872L10.5576 10.9097ZM46.042 11.6499C46.6011 10.6826 47.8382 10.352 48.8057 10.9107L55.7012 14.8941C57.431 15.8935 58.4963 17.7402 58.4961 19.7378L58.4951 27.6919C58.495 28.8094 57.5891 29.7154 56.4717 29.7154H55.8086C54.6913 29.7151 53.7853 28.8092 53.7852 27.6919V24.0357C53.785 23.1012 52.7732 22.5176 51.9639 22.9849L48.7881 24.8179C47.8203 25.3767 46.5822 25.0455 46.0234 24.0777L45.7002 23.5171C45.1416 22.5494 45.4737 21.3122 46.4414 20.7535L49.6143 18.9204C50.4233 18.4533 50.424 17.2855 49.6152 16.8179L46.4502 14.9888C45.4828 14.4298 45.1514 13.1926 45.71 12.2251L46.042 11.6499ZM26.8896 1.48294C28.6201 0.484734 30.7516 0.485949 32.4814 1.4849L39.3711 5.46243C40.3385 6.0214 40.6691 7.25949 40.1104 8.22708L39.7793 8.80033C39.2205 9.76808 37.9824 10.1003 37.0146 9.54154L33.8486 7.71341C33.0393 7.24603 32.0275 7.82964 32.0273 8.76419V12.4312C32.0273 13.5486 31.1213 14.4545 30.0039 14.4546H29.3564C28.239 14.4546 27.3331 13.5487 27.333 12.4312V8.76712C27.3326 7.833 26.3209 7.24943 25.5117 7.71634L22.3457 9.54251C21.3777 10.1008 20.1403 9.76843 19.582 8.80033L19.25 8.22611C18.6919 7.25826 19.0246 6.0209 19.9922 5.46243L26.8896 1.48294Z" fill="white"/>
</svg>
