<svg width="68" height="53" viewBox="0 0 68 53" fill="none" xmlns="http://www.w3.org/2000/svg">
<path d="M38.6426 0.0681152C41.0431 0.0681152 43.3568 0.96891 45.125 2.59253L48.7061 5.88159C49.484 6.59586 50.5015 6.99187 51.5576 6.99194H58.2803C63.5729 6.99201 67.8642 11.2833 67.8643 16.5759V42.6277C67.8641 47.9202 63.5729 52.2116 58.2803 52.2117H10.2246C4.93197 52.2117 0.640807 47.9203 0.640625 42.6277V16.5759C0.640696 11.2832 4.9319 6.99194 10.2246 6.99194H17.2393C18.3573 6.99176 19.4301 6.5481 20.2207 5.75757L23.1025 2.87476C24.8997 1.07776 27.3375 0.0682041 29.8789 0.0681152H38.6426ZM29.8789 5.4353C28.7607 5.43539 27.6882 5.87995 26.8975 6.67065L24.0156 9.55249C22.2186 11.3495 19.7806 12.359 17.2393 12.3591H10.2246C7.89584 12.3591 6.00788 14.2472 6.00781 16.5759V42.6277C6.00799 44.9563 7.89591 46.8445 10.2246 46.8445H58.2803C60.6089 46.8444 62.4969 44.9563 62.4971 42.6277V16.5759C62.497 14.2472 60.609 12.3592 58.2803 12.3591H51.5576C49.157 12.3591 46.8433 11.4585 45.0752 9.83472L41.4951 6.54565C40.7171 5.83132 39.6988 5.4353 38.6426 5.4353H29.8789ZM34.252 13.6794C42.3249 13.6796 48.8691 20.2237 48.8691 28.2966C48.8691 36.3696 42.3249 42.9146 34.252 42.9148C26.1789 42.9148 19.6338 36.3697 19.6338 28.2966C19.6338 20.2236 26.1789 13.6794 34.252 13.6794ZM34.252 19.0457C29.1428 19.0457 25.001 23.1875 25.001 28.2966C25.001 33.4058 29.1428 37.5476 34.252 37.5476C39.361 37.5474 43.5029 33.4057 43.5029 28.2966C43.5029 23.1876 39.361 19.0458 34.252 19.0457ZM55.6113 15.2126C57.588 15.2128 59.1904 16.815 59.1904 18.7917C59.1904 20.7684 57.588 22.3707 55.6113 22.3708C53.6345 22.3708 52.0323 20.7685 52.0322 18.7917C52.0322 16.815 53.6345 15.2126 55.6113 15.2126Z" fill="white"/>
</svg>
