<svg width="43" height="43" viewBox="0 0 43 43" fill="none" xmlns="http://www.w3.org/2000/svg">
<path d="M19.091 3.84105C19.091 2.46034 20.2107 1.34063 21.5914 1.34063C22.9717 1.34087 24.0909 2.46001 24.0911 3.84036V18.6577C24.0911 19.5486 25.1683 19.9948 25.7982 19.3648L28.9808 16.1823L29.1714 16.011C30.1532 15.2105 31.6011 15.2673 32.5163 16.1823C33.4315 17.0975 33.4889 18.546 32.6883 19.5279L32.5163 19.7178L23.712 28.5221C22.5404 29.6937 20.641 29.6937 19.4694 28.5221L10.6658 19.7185C9.68945 18.7422 9.68945 17.1593 10.6658 16.183C11.6421 15.2067 13.225 15.2067 14.2013 16.183L17.3839 19.3655C18.0138 19.9955 19.091 19.5493 19.091 18.6584V3.84105Z" fill="white"/>
<path d="M0.359375 33.2622V26.1216C0.359375 24.7409 1.47866 23.6216 2.85938 23.6216C4.24009 23.6216 5.35938 24.7409 5.35938 26.1216V33.2622C5.35944 35.7474 7.37414 37.7622 9.85938 37.7622H33.3203C35.8056 37.7622 37.8202 35.7474 37.8203 33.2622V26.1216C37.8203 24.7409 38.9396 23.6216 40.3203 23.6216C41.701 23.6216 42.8203 24.7409 42.8203 26.1216V33.2622C42.8202 38.5089 38.567 42.7622 33.3203 42.7622H9.85938C4.61271 42.7622 0.359441 38.5089 0.359375 33.2622Z" fill="white"/>
</svg>
