<svg width="58" height="53" viewBox="0 0 58 53" fill="none" xmlns="http://www.w3.org/2000/svg">
<path d="M39.5195 0.305298C45.8495 0.305298 50.9814 5.43719 50.9814 11.7672V26.2464C50.9814 27.5302 51.8279 28.6322 52.9152 29.3149C55.5295 30.9564 57.2676 33.8643 57.2676 37.1793C57.2675 42.3058 53.1118 46.4615 47.9854 46.4615C42.8589 46.4615 38.7032 42.3058 38.7031 37.1793C38.7031 33.8666 40.4389 30.9605 43.0503 29.3184C44.1362 28.6356 44.9814 27.5341 44.9814 26.2513V11.7672C44.9814 8.7509 42.5358 6.3053 39.5195 6.3053C36.8122 6.30549 34.5136 8.28925 34.1172 10.9674L29.4658 42.3922C28.6202 48.1037 23.7181 52.3345 17.9443 52.3346C11.5118 52.3346 6.29714 47.1196 6.29688 40.6871C6.29688 39.0303 7.64002 37.6871 9.29688 37.6871C10.9537 37.6871 12.2969 39.0303 12.2969 40.6871C12.2971 43.8058 14.8256 46.3346 17.9443 46.3346C20.7436 46.3345 23.12 44.2832 23.5303 41.5143L28.1816 10.0885C29.0136 4.46805 33.8379 0.305491 39.5195 0.305298ZM47.9795 33.3571C45.8684 33.3571 44.1562 35.0682 44.1562 37.1793C44.1564 39.2904 45.8684 41.0016 47.9795 41.0016C50.0905 41.0015 51.8017 39.2903 51.8018 37.1793C51.8018 35.0683 50.0905 33.3572 47.9795 33.3571ZM9.27637 1.73401C14.3905 1.73423 18.5361 5.88055 18.5361 10.9948C18.5361 12.4936 18.1801 13.9092 17.5479 15.1617L11.0322 30.1168C10.7824 30.844 10.0923 31.3667 9.28027 31.3668C8.50564 31.3668 7.84133 30.8915 7.56488 30.2164C7.56375 30.2136 7.56016 30.2129 7.55805 30.215C7.55597 30.2171 7.55244 30.2164 7.55127 30.2137L1.07031 15.2897C0.862045 14.8926 0.680954 14.4788 0.53125 14.0504L0.525391 14.0328C0.194991 13.0812 0.0156645 12.0589 0.015625 10.9948C0.015625 5.88041 4.16203 1.73401 9.27637 1.73401ZM9.27051 7.02502C7.07867 7.02502 5.30179 8.80194 5.30176 10.9938C5.30176 13.1856 7.07865 14.9625 9.27051 14.9625C11.4622 14.9623 13.2393 13.1855 13.2393 10.9938C13.2392 8.80207 11.4622 7.02523 9.27051 7.02502Z" fill="white"/>
</svg>
