<svg width="57" height="57" viewBox="0 0 57 57" fill="none" xmlns="http://www.w3.org/2000/svg">
<path d="M28.4502 0.858276C43.9039 0.858276 56.4316 13.386 56.4316 28.8397C56.4316 44.2934 43.9039 56.8212 28.4502 56.8212C12.9965 56.8212 0.46875 44.2934 0.46875 28.8397C0.46875 13.386 12.9965 0.858276 28.4502 0.858276ZM28.4502 5.55847C15.5922 5.55847 5.16895 15.9817 5.16895 28.8397C5.16895 41.6977 15.5922 52.121 28.4502 52.121C41.3082 52.121 51.7314 41.6977 51.7314 28.8397C51.7314 15.9817 41.3082 5.55847 28.4502 5.55847ZM29.8477 21.9784C30.3999 21.9784 30.8477 22.4261 30.8477 22.9784V37.5702C30.8478 38.1222 31.2956 38.5701 31.8477 38.5702H36.751C37.3033 38.5702 37.751 39.0179 37.751 39.5702V41.0458C37.7508 41.5979 37.3031 42.0458 36.751 42.0458H20.1406C19.5885 42.0458 19.1408 41.5979 19.1406 41.0458V39.5702C19.1406 39.0179 19.5883 38.5702 20.1406 38.5702H26.1475C26.6996 38.5702 27.1473 38.1223 27.1475 37.5702V26.454C27.1475 25.9017 26.6997 25.454 26.1475 25.454H21.5996C21.0474 25.454 20.5997 25.0062 20.5996 24.454V22.9784C20.5996 22.4261 21.0473 21.9784 21.5996 21.9784H29.8477ZM29.9551 13.538C30.5073 13.5381 30.9551 13.9857 30.9551 14.538V17.7509C30.9551 18.3031 30.5073 18.7507 29.9551 18.7509H27.5068C26.9546 18.7509 26.5069 18.3031 26.5068 17.7509V14.538C26.5068 13.9857 26.9546 13.538 27.5068 13.538H29.9551Z" fill="white"/>
</svg>
