<svg width="53" height="41" viewBox="0 0 53 41" fill="none" xmlns="http://www.w3.org/2000/svg">
<path d="M23.6416 21.8068C25.2092 19.423 28.7048 19.423 30.2724 21.8068L38.3818 34.1398C40.1162 36.7783 38.2229 40.288 35.0654 40.2882H18.8486C15.691 40.288 13.7978 36.7783 15.5322 34.1398L23.6416 21.8068ZM10.2822 0.69751C11.9497 0.866717 13.2518 2.2754 13.2519 3.98754C13.2519 5.69974 11.9498 7.10834 10.2822 7.27757L9.94432 7.29417H4.26757C2.44139 7.29408 0.960957 5.81374 0.960938 3.98754C0.961044 2.16141 2.44144 0.681002 4.26757 0.680908H9.94432L10.2822 0.69751ZM32.6503 0.680908C34.4766 0.680908 35.9569 2.16135 35.957 3.98754C35.957 5.69953 34.6565 7.10806 32.9892 7.27757L32.6503 7.29417H21.2978C19.4716 7.29417 17.9912 5.8138 17.9912 3.98754C17.9913 2.16135 19.4716 0.680908 21.2978 0.680908H32.6503ZM49.6806 0.680908C51.5067 0.681061 52.9871 2.16145 52.9872 3.98754C52.9872 5.69962 51.6859 7.10818 50.0185 7.27757L49.6806 7.29417H44.0029C42.1771 7.29361 40.6962 5.81345 40.6962 3.98754C40.6963 2.1617 42.1771 0.681467 44.0029 0.680908H49.6806Z" fill="white"/>
</svg>
