<svg width="53" height="41" viewBox="0 0 53 41" fill="none" xmlns="http://www.w3.org/2000/svg">
<path d="M23.0791 19.3165C24.6467 21.7003 28.1423 21.7003 29.7099 19.3165L37.8193 6.9835C39.5537 4.34499 37.6604 0.835293 34.5029 0.835083H18.2861C15.1285 0.835256 13.2353 4.34497 14.9697 6.9835L23.0791 19.3165ZM9.71971 40.4258C11.3872 40.2566 12.6893 38.8479 12.6894 37.1358C12.6894 35.4236 11.3873 34.015 9.71971 33.8457L9.38182 33.8291H3.70507C1.87889 33.8292 0.398457 35.3096 0.398438 37.1358C0.398544 38.9619 1.87894 40.4423 3.70507 40.4424H9.38182L9.71971 40.4258ZM32.0878 40.4424C33.9141 40.4424 35.3944 38.9619 35.3945 37.1358C35.3945 35.4238 34.094 34.0152 32.4267 33.8457L32.0878 33.8291H20.7353C18.9091 33.8291 17.4287 35.3095 17.4287 37.1358C17.4288 38.9619 18.9091 40.4424 20.7353 40.4424H32.0878ZM49.1181 40.4424C50.9442 40.4422 52.4246 38.9618 52.4247 37.1358C52.4247 35.4237 51.1234 34.0151 49.456 33.8457L49.1181 33.8291H43.4404C41.6146 33.8297 40.1337 35.3098 40.1337 37.1358C40.1338 38.9616 41.6146 40.4418 43.4404 40.4424H49.1181Z" fill="white"/>
</svg>
