<svg width="53" height="60" viewBox="0 0 53 60" fill="none" xmlns="http://www.w3.org/2000/svg">
<path d="M33.9209 36.0175C44.6533 37.511 52.4636 42.0762 52.4639 47.4764C52.4634 54.0902 40.7484 59.452 26.2979 59.452C11.8475 59.4519 0.133253 54.0902 0.132812 47.4764C0.133025 42.2153 7.54636 37.7464 17.8525 36.1385C18.3104 36.0674 18.7207 36.4241 18.7207 36.8876V40.9559C18.7207 41.214 18.5418 41.4432 18.2871 41.4852C15.0497 42.0202 12.2352 42.8593 10.0225 43.8719C8.07353 44.764 6.81748 45.6875 6.11719 46.4452C5.78041 46.8097 5.61935 47.0839 5.54688 47.246C5.48116 47.393 5.48144 47.4598 5.48145 47.4764C5.48144 47.4933 5.48134 47.5603 5.54688 47.7069C5.61943 47.8691 5.78031 48.1441 6.11719 48.5087C6.81757 49.2663 8.0736 50.1899 10.0225 51.0819C13.912 52.862 19.6612 54.1033 26.2979 54.1034C32.9347 54.1034 38.6846 52.862 42.5742 51.0819C44.5231 50.1899 45.7791 49.2663 46.4795 48.5087C46.8164 48.1441 46.9773 47.8691 47.0498 47.7069C47.1153 47.5603 47.1152 47.4933 47.1152 47.4764C47.1152 47.4598 47.1155 47.393 47.0498 47.246C46.9773 47.0839 46.8163 46.8097 46.4795 46.4452C45.7792 45.6875 44.5232 44.764 42.5742 43.8719C40.1546 42.7646 37.0155 41.8652 33.3906 41.3436C33.2004 41.3163 33.0644 41.1482 33.0645 40.9559V36.7684C33.0645 36.3098 33.4667 35.9544 33.9209 36.0175ZM25.8955 0.227417C31.5257 0.227667 36.0898 4.79243 36.0898 10.4227C36.0896 14.9529 33.1345 18.7925 29.0469 20.12C28.7163 20.2273 28.4805 20.5283 28.4805 20.8759V40.955C28.4804 41.0492 28.4705 41.1436 28.4531 41.2362L27.0938 48.4833C26.8441 49.8122 24.9401 49.8122 24.6904 48.4833L23.3311 41.2362C23.3137 41.1436 23.3047 41.0492 23.3047 40.955V20.8739C23.3046 20.5267 23.0694 20.2256 22.7393 20.118C18.6539 18.7892 15.7004 14.9513 15.7002 10.4227C15.7002 4.79228 20.2651 0.227417 25.8955 0.227417ZM23.0811 3.93152C21.1014 3.93162 19.4961 5.53681 19.4961 7.51648C19.4962 9.49604 21.1015 11.1004 23.0811 11.1005C25.0607 11.1004 26.6659 9.49609 26.666 7.51648C26.666 5.53677 25.0608 3.93155 23.0811 3.93152Z" fill="white"/>
</svg>
