<svg width="50" height="50" viewBox="0 0 50 50" fill="none" xmlns="http://www.w3.org/2000/svg">
<path d="M16.5569 1.16164C17.5646 0.345988 19.0459 0.411537 19.9787 1.35146C20.9734 2.35413 20.9687 3.97322 19.9662 4.96807L9.00898 15.8379H33.4511C43.9764 15.8379 49.3239 24.7161 49.5035 32.8569C49.5943 36.9822 48.4139 41.2402 45.732 44.516C42.9969 47.8564 38.8431 49.9908 33.4511 49.9908H25.2288C23.8162 49.9908 22.6712 48.8458 22.6712 47.4332C22.6712 46.0207 23.8162 44.8756 25.2288 44.8756H33.4511C37.3745 44.8756 40.0503 43.3804 41.7733 41.2765C43.5491 39.1076 44.4573 36.1034 44.3883 32.9693C44.2475 26.5916 40.278 20.9531 33.4511 20.9531H8.94404L19.9787 32.0726C20.9737 33.0752 20.9688 34.6967 19.9662 35.6918C19.0263 36.6242 17.5432 36.677 16.5419 35.8541L16.3496 35.6768L0.984009 20.1963C0.506464 19.7149 0.239727 19.0635 0.242205 18.3855C0.244831 17.7071 0.517394 17.0575 0.998995 16.5797L16.3621 1.33647L16.5569 1.16164Z" fill="white"/>
</svg>
